<svg id="svg" version="1.1" xmlns="http://www.w3.org/2000/svg" xmlns:xlink="http://www.w3.org/1999/xlink" width="400" height="358.7368421052632" viewBox="0, 0, 400,358.7368421052632"><g id="svgg"><path id="path0" d="M82.960 2.390 C 82.210 2.693,82.456 3.761,83.498 4.725 C 84.040 5.227,102.404 19.980,124.305 37.509 C 206.537 103.323,199.408 97.522,198.654 98.001 C 198.408 98.157,176.705 98.287,150.425 98.290 C 124.145 98.293,102.559 98.432,102.456 98.599 C 102.353 98.766,102.599 99.775,103.003 100.841 C 103.816 102.987,119.520 144.135,125.444 159.641 C 127.517 165.067,130.104 171.848,131.192 174.709 C 132.281 177.570,133.545 180.879,134.002 182.063 C 134.460 183.247,136.558 188.735,138.665 194.260 C 140.773 199.785,144.162 208.664,146.197 213.991 C 148.232 219.318,151.592 228.117,153.663 233.543 C 158.782 246.955,173.250 284.854,179.615 301.525 C 182.477 309.022,186.082 318.466,187.625 322.511 C 189.169 326.556,192.316 334.789,194.619 340.807 C 196.922 346.825,199.075 352.594,199.403 353.627 C 200.480 357.016,198.830 360.796,216.510 314.439 C 221.176 302.206,226.692 287.758,228.769 282.332 C 230.845 276.906,234.854 266.413,237.676 259.013 C 240.498 251.614,243.643 243.381,244.663 240.717 C 245.684 238.054,248.460 230.789,250.832 224.574 C 253.204 218.359,257.210 207.865,259.734 201.256 C 262.259 194.646,267.584 180.682,271.567 170.224 C 275.551 159.767,279.188 150.242,279.650 149.058 C 280.111 147.874,281.962 143.031,283.763 138.296 C 285.563 133.561,287.354 128.879,287.743 127.892 C 293.893 112.268,298.763 98.822,298.421 98.410 C 298.100 98.023,289.280 97.937,250.001 97.937 C 222.825 97.937,201.973 97.801,201.973 97.624 C 201.973 97.349,230.946 74.041,298.163 20.242 C 315.695 6.210,319.077 3.262,318.410 2.596 C 317.803 1.989,317.141 2.249,317.334 3.018 C 317.539 3.838,317.454 3.909,295.426 21.524 C 294.045 22.629,287.184 28.134,280.179 33.759 C 273.175 39.383,254.045 54.720,237.668 67.841 C 221.291 80.962,206.246 93.021,204.234 94.638 C 199.837 98.173,200.940 98.225,196.132 94.255 C 193.919 92.427,189.467 88.835,186.239 86.273 C 183.011 83.711,180.186 81.446,179.961 81.241 C 179.736 81.035,170.996 74.021,160.538 65.654 C 132.476 43.202,91.463 10.324,87.386 7.013 C 83.386 3.765,82.766 3.030,83.587 2.506 C 84.147 2.150,83.741 2.075,82.960 2.390 M297.882 98.924 C 297.973 99.072,297.091 101.695,295.921 104.753 C 294.752 107.812,293.089 112.170,292.226 114.439 C 291.363 116.709,286.428 129.623,281.259 143.139 C 276.091 156.655,270.759 170.619,269.411 174.170 C 268.063 177.722,266.002 183.130,264.831 186.188 C 263.661 189.247,260.487 197.561,257.779 204.664 C 255.071 211.767,250.755 223.067,248.189 229.776 C 245.623 236.484,242.633 244.314,241.544 247.175 C 240.455 250.036,239.190 253.345,238.732 254.529 C 237.816 256.897,234.368 265.940,227.994 282.691 C 225.704 288.709,223.600 294.197,223.317 294.888 C 223.035 295.578,219.398 305.103,215.236 316.054 C 211.074 327.004,207.289 336.933,206.824 338.117 C 206.360 339.300,205.066 342.691,203.949 345.650 C 201.489 352.165,200.914 353.416,200.499 353.160 C 200.144 352.940,200.043 100.146,200.397 99.222 C 200.632 98.611,297.505 98.314,297.882 98.924 M203.408 354.352 C 203.408 354.501,202.924 354.837,202.332 355.099 C 200.911 355.728,200.667 358.121,202.063 357.739 C 202.719 357.559,202.753 357.493,202.242 357.387 C 201.444 357.221,201.452 357.142,202.392 356.062 C 203.029 355.329,203.271 355.246,203.737 355.599 C 204.049 355.836,204.190 355.893,204.048 355.726 C 203.907 355.558,203.953 355.120,204.151 354.751 C 204.429 354.232,204.385 354.081,203.959 354.081 C 203.656 354.081,203.408 354.203,203.408 354.352 " stroke="none" fill="#84e4fb" fill-rule="evenodd"></path><path id="path1" d="M81.695 2.599 C 81.606 2.847,81.750 3.614,82.013 4.305 C 82.453 5.458,83.302 9.404,86.647 25.830 C 87.310 29.085,88.753 36.108,89.853 41.435 C 92.235 52.972,91.939 51.527,93.049 57.040 C 93.546 59.507,94.539 64.269,95.256 67.623 C 95.972 70.978,96.864 75.336,97.238 77.309 C 97.816 80.363,98.945 85.864,100.811 94.709 C 101.040 95.794,101.396 97.085,101.603 97.578 L 101.979 98.475 150.042 98.382 C 176.476 98.330,198.331 98.162,198.607 98.007 C 199.441 97.541,206.830 103.557,124.305 37.509 C 80.985 2.838,82.511 4.091,82.511 3.183 C 82.511 2.408,81.914 1.981,81.695 2.599 M318.077 3.677 C 317.666 4.413,310.319 10.528,298.175 20.242 C 236.375 69.676,201.973 97.348,201.973 97.624 C 201.973 97.801,222.813 97.937,249.973 97.937 C 285.581 97.937,298.079 98.043,298.384 98.348 C 299.089 99.053,299.780 96.814,301.501 88.251 C 302.393 83.812,304.807 71.946,306.865 61.883 C 308.924 51.821,310.936 41.973,311.338 40.000 C 311.739 38.027,312.872 32.538,313.854 27.803 C 314.836 23.067,316.313 15.883,317.135 11.839 C 317.958 7.794,318.778 4.331,318.957 4.143 C 319.354 3.728,319.390 2.511,319.005 2.511 C 318.853 2.511,318.435 3.036,318.077 3.677 M393.120 90.254 C 393.331 90.665,393.753 91.208,394.057 91.460 C 394.362 91.713,394.522 92.063,394.414 92.238 C 394.306 92.413,394.500 92.556,394.844 92.556 C 395.353 92.556,395.274 92.337,394.420 91.390 C 393.842 90.749,393.227 90.063,393.053 89.865 C 392.879 89.668,392.910 89.843,393.120 90.254 " stroke="none" fill="#5cebfb" fill-rule="evenodd"></path><path id="path2" d="M80.429 3.694 C 79.798 4.345,79.283 4.998,79.283 5.146 C 79.283 5.294,78.855 5.811,78.333 6.295 C 77.811 6.779,77.495 7.175,77.631 7.175 C 77.767 7.175,77.266 7.791,76.517 8.543 C 75.006 10.063,73.514 11.839,73.749 11.839 C 73.832 11.839,73.013 12.762,71.928 13.892 C 70.843 15.021,69.955 16.048,69.955 16.173 C 69.955 16.299,69.430 16.963,68.789 17.649 C 68.148 18.335,67.058 19.578,66.368 20.410 C 65.677 21.243,64.746 22.330,64.299 22.825 C 63.852 23.321,63.579 23.877,63.693 24.061 C 63.807 24.245,63.484 24.554,62.977 24.747 C 62.469 24.940,61.869 25.505,61.642 26.002 C 61.415 26.499,61.100 26.906,60.942 26.906 C 60.783 26.906,60.268 27.473,59.798 28.166 C 59.327 28.859,58.352 30.062,57.632 30.841 C 56.912 31.619,56.323 32.424,56.323 32.630 C 56.323 32.836,56.185 33.004,56.017 33.004 C 55.849 33.004,54.934 34.013,53.984 35.247 C 53.034 36.480,51.920 37.768,51.509 38.109 C 51.098 38.450,50.897 38.732,51.062 38.736 C 51.227 38.741,50.783 39.307,50.076 39.994 C 49.368 40.681,48.789 41.369,48.789 41.524 C 48.789 41.678,47.821 42.823,46.637 44.067 C 45.453 45.311,44.484 46.496,44.484 46.700 C 44.484 46.904,44.093 47.380,43.615 47.756 C 43.136 48.132,42.133 49.285,41.385 50.319 C 40.637 51.352,39.737 52.458,39.385 52.778 C 39.032 53.097,38.744 53.550,38.744 53.785 C 38.744 54.020,38.583 54.113,38.386 53.991 C 38.188 53.869,38.027 54.092,38.027 54.487 C 38.027 54.881,37.841 55.319,37.613 55.460 C 37.339 55.630,37.297 55.557,37.489 55.247 C 37.681 54.936,37.639 54.864,37.365 55.033 C 37.137 55.174,36.951 55.531,36.951 55.827 C 36.951 56.123,36.789 56.265,36.592 56.143 C 36.263 55.940,36.073 56.430,36.200 57.157 C 36.228 57.319,36.110 57.365,35.938 57.259 C 35.766 57.152,35.156 57.653,34.584 58.372 C 34.011 59.091,33.341 59.881,33.094 60.128 C 32.848 60.374,32.646 60.674,32.646 60.793 C 32.646 60.911,32.085 61.501,31.400 62.102 C 30.714 62.704,30.190 63.308,30.234 63.444 C 30.278 63.580,29.879 64.161,29.347 64.736 C 28.815 65.311,28.476 65.938,28.595 66.130 C 28.718 66.329,28.623 66.363,28.372 66.208 C 28.093 66.035,27.862 66.210,27.738 66.686 C 27.630 67.099,27.416 67.358,27.261 67.263 C 26.984 67.091,26.387 68.109,26.483 68.588 C 26.510 68.724,26.253 68.939,25.912 69.066 C 25.090 69.372,22.840 72.008,22.840 72.666 C 22.840 72.951,22.625 73.184,22.362 73.184 C 22.099 73.184,21.883 73.351,21.883 73.555 C 21.883 73.944,20.945 75.065,19.292 76.652 C 18.755 77.168,18.402 77.728,18.506 77.898 C 18.611 78.068,18.445 78.206,18.138 78.206 C 17.830 78.206,17.578 78.448,17.578 78.744 C 17.578 79.040,17.413 79.283,17.212 79.283 C 17.010 79.283,16.387 80.005,15.827 80.888 C 15.267 81.770,14.684 82.376,14.530 82.233 C 14.377 82.090,14.328 82.215,14.422 82.511 C 14.525 82.836,14.173 83.306,13.534 83.696 C 12.951 84.052,12.565 84.434,12.675 84.544 C 12.785 84.654,12.400 85.143,11.819 85.632 C 11.238 86.121,10.762 86.670,10.762 86.851 C 10.762 87.033,10.256 87.705,9.638 88.344 C 8.680 89.335,4.862 93.767,4.002 94.888 C 3.851 95.085,3.709 95.390,3.688 95.565 C 3.666 95.741,3.450 96.007,3.207 96.157 C 2.964 96.307,2.865 96.688,2.986 97.004 C 3.186 97.527,7.571 97.578,51.747 97.578 C 95.101 97.578,100.374 97.638,101.086 98.137 C 101.914 98.717,102.276 98.157,101.575 97.381 C 101.406 97.194,101.089 96.152,100.872 95.067 C 100.655 93.982,99.901 90.350,99.197 86.996 C 98.493 83.641,97.611 79.283,97.238 77.309 C 96.864 75.336,95.972 70.978,95.256 67.623 C 94.539 64.269,93.546 59.507,93.049 57.040 C 91.939 51.527,92.235 52.972,89.853 41.435 C 88.753 36.108,87.310 29.085,86.647 25.830 C 83.272 9.253,82.450 5.453,81.983 4.256 C 81.702 3.538,81.572 2.852,81.693 2.731 C 81.814 2.610,81.837 2.511,81.745 2.511 C 81.652 2.511,81.060 3.044,80.429 3.694 M319.291 3.067 C 319.286 3.472,319.136 3.956,318.957 4.143 C 318.778 4.331,317.958 7.794,317.135 11.839 C 316.313 15.883,314.836 23.067,313.854 27.803 C 312.872 32.538,311.739 38.027,311.338 40.000 C 310.936 41.973,308.924 51.821,306.865 61.883 C 304.807 71.946,302.393 83.812,301.501 88.251 C 300.609 92.691,299.641 96.859,299.351 97.513 L 298.822 98.704 299.626 98.141 C 300.345 97.637,305.483 97.576,348.869 97.553 C 375.511 97.539,397.629 97.403,398.021 97.250 C 398.689 96.989,398.662 96.903,397.572 95.813 C 396.934 95.175,396.407 94.545,396.401 94.412 C 396.379 93.968,395.047 92.556,394.651 92.556 C 394.436 92.556,394.300 92.417,394.350 92.247 C 394.495 91.747,391.398 88.251,390.809 88.251 C 390.514 88.251,390.375 88.084,390.502 87.879 C 390.716 87.532,387.931 83.854,385.471 81.235 C 384.879 80.605,384.388 80.029,384.381 79.955 C 384.357 79.727,382.671 77.766,381.270 76.336 C 380.537 75.589,380.049 74.978,380.184 74.978 C 380.319 74.978,379.909 74.502,379.273 73.922 C 378.637 73.341,378.115 72.735,378.113 72.576 C 378.111 72.417,377.384 71.501,376.498 70.541 C 375.613 69.580,374.888 68.681,374.888 68.543 C 374.888 68.404,373.941 67.274,372.785 66.032 C 371.628 64.790,370.457 63.435,370.184 63.022 C 369.910 62.608,369.242 61.808,368.700 61.242 C 368.157 60.677,367.713 60.140,367.713 60.049 C 367.713 59.959,367.403 59.527,367.024 59.090 C 366.102 58.027,363.068 54.652,362.063 53.571 C 361.619 53.093,361.256 52.631,361.256 52.544 C 361.256 52.330,360.243 51.097,358.879 49.650 C 358.262 48.996,357.829 48.389,357.917 48.301 C 358.005 48.213,357.596 47.858,357.009 47.511 C 356.365 47.131,356.018 46.681,356.134 46.378 C 356.252 46.071,356.030 45.799,355.562 45.677 C 355.142 45.567,354.798 45.254,354.798 44.981 C 354.798 44.708,354.637 44.484,354.439 44.484 C 354.242 44.484,354.081 44.250,354.081 43.964 C 354.081 43.678,353.878 43.315,353.630 43.157 C 353.382 42.999,352.700 42.224,352.113 41.435 C 351.526 40.646,350.236 39.199,349.245 38.220 C 348.254 37.242,347.686 36.567,347.982 36.722 C 348.278 36.877,348.207 36.750,347.824 36.439 C 347.441 36.129,347.259 35.874,347.419 35.874 C 347.580 35.874,347.514 35.637,347.274 35.348 C 347.034 35.058,346.658 34.856,346.439 34.899 C 346.221 34.942,346.034 34.791,346.025 34.562 C 346.016 34.333,345.525 33.547,344.933 32.815 C 343.105 30.554,341.072 28.179,340.642 27.803 C 340.417 27.605,339.612 26.637,338.854 25.650 C 338.096 24.664,337.055 23.476,336.541 23.010 C 336.026 22.544,335.848 22.284,336.143 22.432 C 336.439 22.580,336.003 22.053,335.173 21.260 C 334.344 20.467,333.747 19.736,333.847 19.636 C 333.947 19.536,333.595 19.113,333.065 18.696 C 332.534 18.278,332.223 17.937,332.373 17.937 C 332.523 17.937,332.061 17.401,331.346 16.746 C 330.630 16.091,330.045 15.423,330.045 15.262 C 330.045 15.102,329.637 14.593,329.139 14.131 C 328.641 13.670,328.251 13.195,328.273 13.077 C 328.317 12.832,325.413 9.381,323.689 7.630 C 323.054 6.985,322.609 6.457,322.699 6.457 C 322.878 6.457,322.240 5.656,320.457 3.640 C 319.472 2.527,319.298 2.441,319.291 3.067 " stroke="none" fill="#44dbfb" fill-rule="evenodd"></path><path id="path3" d="M82.520 2.386 C 82.822 2.467,83.225 2.888,83.417 3.321 C 83.610 3.755,85.381 5.412,87.354 7.005 C 92.368 11.053,137.710 47.389,160.538 65.654 C 170.996 74.021,179.736 81.035,179.961 81.241 C 180.186 81.446,183.011 83.711,186.239 86.273 C 189.467 88.835,193.919 92.427,196.132 94.255 C 200.940 98.225,199.837 98.173,204.234 94.638 C 206.246 93.021,221.291 80.962,237.668 67.841 C 254.045 54.720,273.175 39.383,280.179 33.759 C 287.184 28.134,294.045 22.629,295.426 21.524 C 312.540 7.839,317.489 3.812,317.489 3.572 C 317.489 2.064,324.512 2.146,199.513 2.194 C 134.866 2.219,82.219 2.305,82.520 2.386 M200.397 99.222 C 200.043 100.146,200.144 352.940,200.499 353.160 C 200.914 353.416,201.489 352.165,203.949 345.650 C 205.066 342.691,206.360 339.300,206.824 338.117 C 207.289 336.933,211.074 327.004,215.236 316.054 C 219.398 305.103,223.035 295.578,223.317 294.888 C 223.600 294.197,225.704 288.709,227.994 282.691 C 234.368 265.940,237.816 256.897,238.732 254.529 C 239.190 253.345,240.455 250.036,241.544 247.175 C 242.633 244.314,245.623 236.484,248.189 229.776 C 250.755 223.067,255.071 211.767,257.779 204.664 C 260.487 197.561,263.661 189.247,264.831 186.188 C 266.002 183.130,268.063 177.722,269.411 174.170 C 270.759 170.619,276.091 156.655,281.259 143.139 C 286.428 129.623,291.363 116.709,292.226 114.439 C 293.089 112.170,294.752 107.812,295.921 104.753 C 297.091 101.695,297.973 99.072,297.882 98.924 C 297.505 98.314,200.632 98.611,200.397 99.222 M202.345 356.116 C 201.473 357.119,201.442 357.309,202.152 357.309 C 202.448 357.309,202.691 357.496,202.691 357.724 C 202.691 357.967,202.971 357.884,203.369 357.524 C 204.110 356.854,204.209 355.277,203.510 355.277 C 203.271 355.277,202.746 355.654,202.345 356.116 " stroke="none" fill="#9cecfc" fill-rule="evenodd"></path><path id="path4" d="M322.700 5.725 C 322.571 5.933,322.725 6.203,323.042 6.325 C 323.831 6.628,324.077 6.295,323.449 5.774 C 323.095 5.480,322.861 5.465,322.700 5.725 M66.780 18.895 C 66.129 19.599,66.390 19.788,67.197 19.198 C 67.554 18.937,67.715 18.644,67.555 18.547 C 67.395 18.451,67.046 18.607,66.780 18.895 M335.615 21.151 C 335.498 21.340,335.932 21.764,336.580 22.093 L 337.758 22.692 336.888 21.750 C 335.904 20.683,335.904 20.683,335.615 21.151 M339.326 25.592 C 339.597 25.920,339.693 26.188,339.540 26.188 C 339.387 26.188,339.553 26.511,339.910 26.906 C 340.267 27.300,340.736 27.618,340.952 27.612 C 341.169 27.606,341.082 27.400,340.759 27.155 C 340.437 26.909,340.114 26.403,340.042 26.030 C 339.970 25.656,339.668 25.271,339.372 25.173 C 338.911 25.021,338.904 25.080,339.326 25.592 M56.085 31.300 C 55.519 32.207,55.631 32.636,56.322 32.205 C 56.678 31.982,56.887 31.587,56.787 31.326 C 56.561 30.737,56.440 30.733,56.085 31.300 M344.630 31.838 C 344.319 32.340,344.915 32.989,345.408 32.685 C 345.768 32.462,345.754 32.312,345.340 31.969 C 345.053 31.730,344.733 31.671,344.630 31.838 M348.188 36.190 C 347.957 36.563,349.655 37.909,349.965 37.599 C 350.057 37.507,349.746 37.069,349.274 36.626 C 348.753 36.137,348.327 35.966,348.188 36.190 M48.072 41.576 C 48.072 41.818,47.929 41.927,47.754 41.819 C 47.579 41.711,47.236 41.863,46.992 42.156 C 46.633 42.589,46.651 42.691,47.087 42.691 C 47.723 42.691,48.634 41.698,48.302 41.367 C 48.175 41.240,48.072 41.334,48.072 41.576 M353.329 42.511 C 353.534 42.906,354.040 43.632,354.453 44.126 C 354.966 44.738,355.087 44.795,354.832 44.305 C 354.628 43.910,354.122 43.184,353.708 42.691 C 353.195 42.079,353.075 42.022,353.329 42.511 M43.069 46.795 L 42.250 47.667 43.039 47.461 C 43.473 47.348,43.915 47.028,44.021 46.751 C 44.358 45.872,43.917 45.892,43.069 46.795 M357.505 47.328 C 357.392 47.512,357.627 47.765,358.027 47.892 C 358.427 48.019,358.647 48.298,358.515 48.512 C 358.367 48.751,358.443 48.796,358.712 48.630 C 359.041 48.426,358.997 48.190,358.533 47.677 C 357.824 46.894,357.782 46.880,357.505 47.328 M361.614 52.197 C 361.614 52.493,361.876 52.735,362.196 52.735 C 362.673 52.735,362.698 52.638,362.332 52.197 C 362.086 51.901,361.824 51.659,361.750 51.659 C 361.675 51.659,361.614 51.901,361.614 52.197 M370.821 63.295 C 370.690 63.638,370.850 63.792,371.303 63.758 C 371.815 63.719,371.887 63.593,371.597 63.243 C 371.114 62.662,371.063 62.665,370.821 63.295 M374.529 67.623 C 374.529 67.919,374.791 68.161,375.111 68.161 C 375.588 68.161,375.612 68.064,375.247 67.623 C 375.001 67.327,374.739 67.085,374.665 67.085 C 374.590 67.085,374.529 67.327,374.529 67.623 M20.856 73.304 C 20.521 73.708,20.544 73.861,20.966 74.023 C 21.618 74.273,21.937 73.851,21.559 73.239 C 21.342 72.889,21.189 72.903,20.856 73.304 M382.982 77.956 C 383.159 78.417,384.933 79.475,384.933 79.120 C 384.933 79.039,384.450 78.629,383.859 78.208 C 383.153 77.706,382.853 77.619,382.982 77.956 M387.085 82.615 C 387.085 82.939,387.422 83.384,387.833 83.604 C 388.933 84.192,389.005 83.831,387.981 82.869 C 387.254 82.186,387.085 82.138,387.085 82.615 M12.179 83.889 C 11.551 84.398,11.472 84.616,11.836 84.841 C 12.138 85.028,12.222 84.993,12.068 84.745 C 11.936 84.531,12.153 84.253,12.551 84.127 C 12.948 84.001,13.274 83.747,13.274 83.563 C 13.274 83.090,13.104 83.140,12.179 83.889 M7.756 88.921 C 7.178 89.560,7.191 89.584,8.035 89.422 C 8.522 89.329,9.007 89.028,9.113 88.752 C 9.392 88.023,8.464 88.139,7.756 88.921 M391.971 88.713 C 392.094 89.065,392.700 89.615,393.317 89.934 C 394.360 90.473,394.404 90.472,393.947 89.921 C 393.676 89.594,393.291 89.327,393.090 89.327 C 392.889 89.327,392.505 89.045,392.236 88.700 C 391.772 88.104,391.759 88.105,391.971 88.713 M396.771 93.978 C 396.771 94.169,397.135 94.515,397.578 94.748 C 398.381 95.169,398.382 95.168,397.702 94.402 C 396.943 93.547,396.771 93.469,396.771 93.978 M398.712 97.268 C 399.019 98.684,401.043 98.628,348.553 98.648 C 321.727 98.659,299.717 98.729,299.641 98.804 C 299.566 98.879,298.965 100.370,298.307 102.116 C 297.648 103.863,296.062 108.036,294.783 111.390 C 289.900 124.188,274.159 165.402,266.009 186.726 C 254.596 216.591,250.345 227.733,248.078 233.722 C 245.474 240.604,239.778 255.491,238.745 258.117 C 238.279 259.300,237.015 262.610,235.935 265.471 C 234.855 268.332,233.136 272.852,232.116 275.516 C 225.358 293.161,214.296 322.131,213.076 325.381 C 212.521 326.861,209.879 333.792,207.206 340.784 C 204.533 347.776,202.383 353.525,202.429 353.560 C 202.785 353.832,205.603 353.944,205.758 353.692 C 205.867 353.516,205.666 353.461,205.310 353.571 C 204.955 353.682,205.067 353.531,205.561 353.238 C 206.054 352.944,206.406 352.595,206.344 352.463 C 206.281 352.330,206.490 352.031,206.808 351.799 C 207.126 351.566,207.413 351.027,207.445 350.601 C 207.477 350.174,207.607 349.890,207.735 349.969 C 207.862 350.047,208.272 349.863,208.647 349.558 C 209.021 349.254,209.085 349.115,208.789 349.250 C 208.493 349.385,208.735 349.063,209.327 348.534 C 209.919 348.004,210.161 347.690,209.865 347.835 C 209.370 348.077,210.380 346.745,211.658 345.471 C 213.069 344.064,214.294 342.517,213.812 342.751 C 213.477 342.914,213.509 342.820,213.896 342.502 C 214.238 342.222,214.413 341.887,214.284 341.758 C 214.156 341.630,214.239 341.525,214.469 341.525 C 214.700 341.525,214.888 341.291,214.888 341.005 C 214.888 340.719,215.455 340.052,216.149 339.523 C 217.215 338.710,217.341 338.472,216.968 337.980 C 216.725 337.661,216.661 337.512,216.826 337.651 C 217.213 337.977,218.001 337.186,218.172 336.300 C 218.245 335.921,218.728 335.408,219.245 335.160 C 220.322 334.644,221.480 333.064,221.160 332.546 C 221.041 332.354,221.125 332.197,221.345 332.197 C 221.566 332.197,221.648 332.038,221.527 331.843 C 221.406 331.647,221.534 331.575,221.812 331.681 C 222.381 331.900,223.339 330.623,223.708 329.151 C 223.887 328.440,224.033 328.311,224.257 328.665 C 224.498 329.045,224.564 329.022,224.568 328.559 C 224.572 328.234,224.826 327.872,225.135 327.754 C 225.443 327.636,225.606 327.393,225.496 327.215 C 225.386 327.037,225.547 326.795,225.854 326.677 C 226.162 326.559,226.333 326.333,226.235 326.174 C 226.137 326.015,226.205 325.651,226.386 325.364 C 226.652 324.944,226.717 324.938,226.721 325.335 C 226.725 325.731,226.832 325.740,227.261 325.384 C 227.554 325.141,227.717 324.815,227.621 324.661 C 227.526 324.506,227.687 324.289,227.978 324.177 C 228.286 324.058,228.417 323.736,228.291 323.407 C 228.154 323.050,228.247 322.879,228.542 322.945 C 228.800 323.002,229.232 322.605,229.502 322.063 C 229.773 321.520,230.166 321.076,230.375 321.076 C 230.585 321.076,230.672 320.753,230.569 320.358 C 230.449 319.902,230.521 319.727,230.767 319.879 C 231.014 320.031,231.068 319.895,230.917 319.502 C 230.787 319.164,230.822 318.974,230.995 319.081 C 231.418 319.342,232.171 318.397,231.835 318.026 C 231.689 317.865,231.771 317.849,232.018 317.991 C 232.265 318.132,232.466 318.078,232.466 317.869 C 232.466 317.660,232.612 317.529,232.789 317.578 C 232.967 317.628,233.160 317.507,233.219 317.309 C 233.278 317.112,233.657 316.656,234.062 316.296 C 234.467 315.935,234.611 315.734,234.381 315.849 C 234.131 315.974,234.001 315.805,234.057 315.428 C 234.108 315.081,234.336 314.778,234.563 314.753 C 234.791 314.729,235.149 314.688,235.357 314.664 C 235.566 314.639,235.648 314.474,235.539 314.298 C 235.430 314.121,235.592 313.880,235.899 313.762 C 236.207 313.644,236.368 313.402,236.258 313.224 C 236.148 313.046,236.299 312.808,236.594 312.695 C 236.889 312.581,237.130 312.253,237.130 311.966 C 237.130 311.678,237.517 311.138,237.989 310.766 C 238.641 310.254,238.767 309.944,238.510 309.485 C 238.269 309.054,238.305 308.875,238.637 308.864 C 239.306 308.843,241.701 306.728,241.063 306.721 C 240.612 306.716,240.614 306.668,241.076 306.375 C 241.372 306.188,241.635 305.868,241.659 305.663 C 241.684 305.459,241.724 305.059,241.749 304.774 C 241.776 304.464,242.073 304.310,242.488 304.390 C 243.518 304.589,244.165 303.662,243.338 303.173 C 242.734 302.815,242.739 302.795,243.408 302.875 C 243.803 302.921,244.188 302.798,244.263 302.601 C 244.339 302.404,244.703 302.031,245.071 301.773 C 245.439 301.516,245.740 301.140,245.740 300.939 C 245.740 300.737,246.221 300.091,246.809 299.503 C 247.397 298.915,247.856 298.322,247.829 298.186 C 247.725 297.671,248.339 296.694,248.647 296.884 C 248.824 296.993,248.969 296.839,248.969 296.541 C 248.969 296.243,249.199 295.871,249.481 295.713 C 249.977 295.435,250.045 295.294,250.045 294.529 C 250.045 294.332,250.236 294.211,250.471 294.260 C 250.705 294.309,251.160 293.811,251.481 293.153 C 251.802 292.494,252.216 291.962,252.400 291.970 C 252.585 291.979,252.688 291.629,252.630 291.194 C 252.551 290.606,252.610 290.531,252.859 290.899 C 253.117 291.280,253.337 291.095,253.808 290.104 C 254.145 289.394,254.550 288.848,254.708 288.891 C 254.866 288.934,255.044 288.807,255.102 288.610 C 255.161 288.413,255.541 287.956,255.945 287.596 C 256.350 287.236,256.439 287.046,256.143 287.175 C 255.848 287.304,256.009 287.056,256.502 286.624 C 256.996 286.192,257.407 285.736,257.416 285.610 C 257.426 285.484,258.025 284.751,258.748 283.980 C 259.472 283.210,259.985 282.453,259.890 282.298 C 259.794 282.144,260.002 281.851,260.351 281.647 C 260.701 281.444,260.842 281.273,260.665 281.267 C 260.488 281.261,260.781 280.850,261.315 280.355 C 261.850 279.860,262.312 279.133,262.341 278.741 C 262.391 278.079,262.702 277.866,263.435 277.993 C 263.597 278.022,263.628 277.879,263.503 277.677 C 263.378 277.475,263.457 277.309,263.677 277.309 C 263.898 277.309,263.986 277.160,263.873 276.978 C 263.761 276.796,264.157 276.299,264.753 275.874 C 265.350 275.450,265.753 274.964,265.649 274.796 C 265.544 274.627,265.634 274.381,265.848 274.249 C 266.062 274.116,266.151 273.782,266.045 273.506 C 265.923 273.190,266.093 273.004,266.503 273.004 C 266.861 273.004,267.446 272.682,267.803 272.287 C 268.409 271.617,268.295 271.385,267.444 271.557 C 267.247 271.597,267.218 271.497,267.380 271.335 C 267.541 271.173,267.920 271.038,268.222 271.036 C 268.890 271.030,270.454 268.371,270.229 267.623 C 270.086 267.147,270.110 267.147,270.444 267.620 C 270.766 268.076,270.891 268.082,271.286 267.657 C 271.668 267.246,271.655 267.204,271.211 267.418 C 270.915 267.560,270.996 267.415,271.390 267.096 C 271.785 266.777,272.112 266.402,272.117 266.263 C 272.132 265.868,272.981 264.534,272.994 264.887 C 273.000 265.059,273.245 265.000,273.539 264.757 C 273.832 264.513,273.984 264.170,273.876 263.995 C 273.768 263.820,273.851 263.677,274.060 263.677 C 274.268 263.677,274.420 263.556,274.397 263.408 C 274.289 262.723,274.469 262.218,274.758 262.396 C 275.180 262.658,275.901 261.758,275.967 260.888 C 275.996 260.506,276.265 260.211,276.566 260.231 C 276.867 260.252,277.137 260.067,277.166 259.821 C 277.196 259.574,277.240 259.226,277.265 259.048 C 277.289 258.869,278.353 257.642,279.629 256.322 C 280.905 255.001,281.918 253.815,281.880 253.687 C 281.841 253.558,282.481 252.733,283.301 251.853 C 284.121 250.972,284.713 250.125,284.617 249.969 C 284.521 249.813,284.622 249.686,284.843 249.686 C 285.064 249.686,285.153 249.538,285.041 249.358 C 284.930 249.178,285.041 248.948,285.289 248.848 C 285.621 248.714,285.608 248.659,285.241 248.638 C 284.967 248.623,285.440 248.058,286.292 247.383 C 287.144 246.709,287.881 245.888,287.930 245.558 C 287.978 245.229,288.272 244.678,288.584 244.334 C 288.895 243.990,289.028 243.575,288.880 243.411 C 288.731 243.248,288.887 243.214,289.226 243.335 C 289.565 243.457,289.938 243.402,290.055 243.213 C 290.171 243.024,290.055 242.864,289.797 242.857 C 289.539 242.850,289.671 242.648,290.090 242.409 C 290.966 241.908,293.192 239.347,292.377 239.778 C 292.081 239.934,292.242 239.729,292.735 239.322 C 293.229 238.914,293.471 238.572,293.274 238.562 C 293.076 238.552,293.206 238.374,293.562 238.166 C 294.087 237.862,294.126 237.689,293.771 237.260 C 293.418 236.835,293.430 236.752,293.832 236.841 C 294.129 236.906,294.386 236.598,294.464 236.085 C 294.535 235.609,294.701 235.370,294.831 235.554 C 294.961 235.738,295.471 235.497,295.964 235.018 C 296.457 234.539,296.686 234.246,296.472 234.367 C 296.259 234.488,296.084 234.359,296.084 234.081 C 296.084 233.802,296.218 233.657,296.383 233.759 C 296.547 233.861,296.682 233.763,296.682 233.543 C 296.682 233.322,296.820 233.227,296.988 233.331 C 297.157 233.435,297.682 233.096,298.154 232.577 C 298.627 232.058,298.812 231.749,298.565 231.892 C 298.318 232.034,298.117 231.979,298.117 231.770 C 298.117 231.561,298.354 231.390,298.643 231.390 C 298.987 231.390,299.091 231.183,298.941 230.793 C 298.787 230.392,298.850 230.281,299.132 230.456 C 299.380 230.609,299.552 230.499,299.552 230.188 C 299.552 229.898,300.000 229.283,300.548 228.821 C 301.149 228.316,301.545 227.625,301.545 227.085 C 301.545 226.542,301.753 226.182,302.073 226.172 C 302.363 226.163,302.561 225.961,302.511 225.724 C 302.462 225.486,302.543 225.311,302.691 225.334 C 303.376 225.442,303.880 225.262,303.701 224.972 C 303.593 224.796,303.917 224.382,304.422 224.051 C 305.179 223.555,305.262 223.356,304.896 222.915 C 304.647 222.615,304.618 222.429,304.829 222.491 C 305.277 222.622,307.099 220.762,306.808 220.471 C 306.698 220.360,306.795 220.269,307.025 220.269 C 307.256 220.269,307.444 219.956,307.444 219.573 C 307.444 219.190,307.605 218.777,307.803 218.655 C 308.000 218.533,308.161 218.613,308.161 218.834 C 308.161 219.055,308.326 219.134,308.526 219.010 C 308.727 218.886,308.797 218.633,308.683 218.448 C 308.568 218.263,308.724 218.016,309.029 217.899 C 309.453 217.736,309.497 217.525,309.218 217.004 C 308.996 216.589,308.987 216.323,309.195 216.323 C 309.383 216.323,309.633 216.525,309.750 216.771 C 309.867 217.018,309.897 216.862,309.817 216.425 C 309.736 215.988,309.775 215.660,309.902 215.697 C 310.343 215.826,312.101 214.450,311.904 214.131 C 311.795 213.955,311.877 213.812,312.086 213.812 C 312.295 213.812,312.466 213.640,312.466 213.430 C 312.466 213.220,312.955 212.636,313.553 212.134 C 314.472 211.361,314.569 211.132,314.181 210.655 C 313.792 210.176,313.816 210.125,314.338 210.321 C 314.677 210.448,315.050 210.397,315.167 210.209 C 315.283 210.020,315.167 209.863,314.909 209.860 C 314.651 209.857,314.843 209.647,315.336 209.394 C 315.901 209.103,316.223 208.641,316.205 208.145 C 316.189 207.712,316.251 207.432,316.342 207.523 C 316.618 207.799,317.881 206.981,317.680 206.656 C 317.577 206.490,317.736 206.260,318.032 206.146 C 318.329 206.032,318.545 205.814,318.512 205.660 C 318.480 205.507,318.629 204.978,318.845 204.484 C 319.061 203.991,319.247 203.814,319.260 204.091 C 319.277 204.474,319.461 204.434,320.027 203.922 C 320.509 203.486,320.714 202.954,320.610 202.411 C 320.500 201.834,320.593 201.628,320.909 201.749 C 321.161 201.846,321.650 201.613,321.995 201.231 C 322.340 200.850,322.476 200.533,322.298 200.526 C 322.119 200.520,322.296 200.231,322.691 199.886 C 323.085 199.540,323.461 199.021,323.526 198.732 C 323.591 198.443,323.874 197.951,324.155 197.639 C 324.435 197.327,324.544 196.938,324.395 196.774 C 324.247 196.611,324.327 196.593,324.574 196.735 C 324.821 196.877,325.022 196.822,325.022 196.613 C 325.022 196.404,325.203 196.274,325.423 196.323 C 325.644 196.372,325.877 196.090,325.942 195.695 C 326.007 195.300,326.513 194.616,327.066 194.175 C 327.619 193.734,328.072 193.216,328.072 193.025 C 328.072 192.833,328.329 192.468,328.645 192.213 C 328.960 191.958,329.578 191.143,330.019 190.404 C 330.460 189.664,330.964 189.058,331.139 189.058 C 331.314 189.058,331.354 188.790,331.228 188.461 C 331.074 188.059,331.137 187.949,331.420 188.124 C 331.677 188.283,331.968 188.046,332.171 187.513 C 332.353 187.033,332.878 186.334,333.336 185.958 C 333.795 185.582,334.217 185.036,334.273 184.745 C 334.330 184.453,334.814 183.825,335.350 183.348 C 335.885 182.871,336.343 182.347,336.368 182.182 C 336.392 182.018,336.453 181.803,336.502 181.704 C 336.552 181.605,336.612 181.371,336.637 181.184 C 336.661 180.996,336.907 180.633,337.183 180.377 C 337.599 179.990,337.634 180.002,337.394 180.448 C 337.234 180.744,337.533 180.596,338.057 180.118 C 338.582 179.641,338.948 179.187,338.871 179.110 C 338.794 179.033,339.126 178.575,339.609 178.092 C 340.092 177.609,340.393 177.062,340.278 176.876 C 340.164 176.690,340.561 176.175,341.162 175.731 C 342.179 174.979,343.842 172.908,343.022 173.415 C 342.817 173.541,342.547 173.476,342.420 173.271 C 342.293 173.065,342.399 172.941,342.655 172.996 C 342.912 173.050,343.179 172.722,343.248 172.266 C 343.344 171.636,343.484 171.530,343.837 171.822 C 344.331 172.232,344.941 171.765,345.172 170.799 C 345.238 170.525,345.857 169.737,346.547 169.048 C 347.238 168.359,347.553 167.938,347.248 168.113 C 346.872 168.328,346.896 168.242,347.322 167.847 C 347.668 167.526,347.876 167.188,347.783 167.095 C 347.592 166.904,349.617 164.256,349.931 164.286 C 350.043 164.296,350.094 164.227,350.045 164.132 C 349.996 164.038,350.321 163.704,350.768 163.390 C 351.216 163.077,351.494 162.679,351.386 162.505 C 351.279 162.331,351.516 162.014,351.915 161.801 C 352.313 161.588,352.603 161.297,352.558 161.155 C 352.514 161.013,353.241 160.090,354.172 159.103 C 355.104 158.117,355.792 157.108,355.702 156.861 C 355.612 156.614,355.695 156.413,355.886 156.413 C 356.077 156.413,356.233 156.195,356.233 155.930 C 356.233 155.665,356.552 155.159,356.942 154.806 C 357.332 154.453,357.549 153.999,357.425 153.798 C 357.300 153.597,357.345 153.512,357.523 153.610 C 357.912 153.823,359.134 152.617,358.834 152.317 C 358.719 152.202,358.823 152.108,359.065 152.108 C 359.306 152.108,359.389 151.921,359.248 151.693 C 359.103 151.458,359.149 151.376,359.354 151.503 C 359.553 151.626,360.091 151.328,360.549 150.841 C 361.006 150.354,361.280 149.955,361.156 149.955 C 361.032 149.955,361.327 149.528,361.811 149.006 C 362.295 148.484,362.691 147.913,362.691 147.738 C 362.691 147.563,363.264 146.847,363.965 146.146 C 365.055 145.056,365.171 144.788,364.772 144.295 C 364.418 143.859,364.415 143.785,364.756 143.990 C 365.026 144.152,365.293 144.036,365.421 143.702 C 365.539 143.395,365.762 143.221,365.916 143.316 C 366.309 143.559,366.852 142.787,367.143 141.572 C 367.278 141.006,367.490 140.644,367.614 140.768 C 368.083 141.237,369.522 139.465,369.093 138.947 C 368.775 138.564,368.809 138.506,369.250 138.675 C 369.681 138.840,369.767 138.715,369.618 138.145 C 369.441 137.469,369.747 137.228,370.637 137.345 C 370.765 137.361,370.970 136.977,371.092 136.490 C 371.214 136.004,371.526 135.605,371.786 135.605 C 372.045 135.605,372.284 135.363,372.317 135.067 C 372.350 134.771,372.404 134.287,372.436 133.991 C 372.469 133.695,372.572 133.529,372.665 133.622 C 373.035 133.992,375.000 132.197,375.478 131.052 C 375.758 130.382,376.237 129.738,376.544 129.621 C 376.994 129.448,377.009 129.349,376.622 129.104 C 376.248 128.866,376.271 128.799,376.729 128.795 C 377.329 128.789,379.443 126.322,379.278 125.820 C 379.227 125.666,379.412 125.454,379.688 125.348 C 379.989 125.233,380.121 124.842,380.019 124.371 C 379.894 123.798,379.941 123.718,380.193 124.074 C 380.598 124.646,380.937 124.217,380.792 123.317 C 380.736 122.970,380.839 122.779,381.021 122.891 C 381.202 123.003,381.447 122.843,381.565 122.536 C 381.683 122.229,381.913 122.060,382.076 122.160 C 382.395 122.358,382.896 121.721,383.010 120.972 C 383.048 120.717,383.497 120.181,384.006 119.780 C 384.516 119.379,384.933 118.918,384.933 118.756 C 384.933 118.594,385.413 117.948,386.000 117.319 C 386.586 116.691,387.045 116.069,387.019 115.936 C 386.923 115.449,387.528 114.449,387.813 114.625 C 387.974 114.725,388.474 114.291,388.922 113.661 C 389.371 113.032,389.517 112.653,389.247 112.819 C 388.977 112.986,389.066 112.709,389.445 112.204 C 389.824 111.698,390.245 111.351,390.379 111.433 C 390.795 111.686,391.707 110.084,391.481 109.496 C 391.356 109.169,391.418 109.033,391.633 109.166 C 391.834 109.290,392.466 108.879,393.039 108.252 C 393.612 107.625,393.831 107.268,393.526 107.458 C 393.093 107.726,393.101 107.681,393.558 107.253 C 393.881 106.951,394.124 106.467,394.096 106.177 C 394.046 105.639,395.679 103.857,396.223 103.857 C 396.388 103.857,396.566 103.566,396.618 103.212 C 396.670 102.857,397.251 102.093,397.908 101.513 C 398.565 100.934,398.946 100.457,398.754 100.454 C 398.562 100.451,398.773 100.191,399.223 99.876 C 400.030 99.310,400.282 96.866,399.502 97.161 C 399.327 97.227,399.031 97.065,398.845 96.802 C 398.613 96.473,398.571 96.620,398.712 97.268 M0.729 98.188 C 0.723 98.623,0.948 99.107,1.230 99.265 C 1.512 99.422,1.795 99.713,1.858 99.910 C 1.921 100.108,2.080 100.233,2.211 100.190 C 2.341 100.146,2.616 100.592,2.822 101.181 C 3.027 101.770,3.444 102.347,3.748 102.464 C 4.052 102.581,4.227 102.796,4.136 102.943 C 4.045 103.090,4.387 103.433,4.895 103.705 C 5.738 104.156,6.658 105.617,6.515 106.278 C 6.483 106.426,6.646 106.547,6.876 106.547 C 7.106 106.547,7.188 106.653,7.058 106.783 C 6.760 107.082,7.522 108.032,7.882 107.809 C 8.029 107.718,8.515 108.356,8.963 109.227 C 9.411 110.098,9.999 110.895,10.270 110.999 C 10.541 111.103,10.762 111.404,10.762 111.668 C 10.762 111.931,11.309 112.743,11.977 113.472 C 12.645 114.202,13.109 114.798,13.009 114.798 C 12.909 114.798,13.034 115.048,13.288 115.353 C 13.657 115.798,13.811 115.816,14.064 115.443 C 14.310 115.080,14.367 115.096,14.322 115.516 C 14.225 116.426,14.337 116.953,14.619 116.908 C 15.553 116.761,15.858 116.968,15.443 117.468 C 15.092 117.891,15.247 118.137,16.292 118.813 C 16.995 119.269,17.572 119.853,17.574 120.111 C 17.577 120.391,17.760 120.472,18.027 120.311 C 18.332 120.128,18.318 120.236,17.983 120.649 C 17.559 121.171,17.571 121.256,18.066 121.256 C 18.382 121.256,18.742 121.659,18.866 122.152 C 19.074 122.982,19.428 123.223,20.225 123.077 C 20.398 123.045,20.460 123.326,20.362 123.701 C 20.138 124.557,20.678 125.561,21.363 125.561 C 21.649 125.561,21.883 125.732,21.883 125.940 C 21.883 126.149,22.085 126.204,22.332 126.062 C 22.578 125.920,22.661 125.936,22.514 126.098 C 22.368 126.259,22.449 126.639,22.694 126.942 C 23.062 127.396,23.046 127.444,22.601 127.216 C 22.305 127.065,22.433 127.267,22.886 127.666 C 23.338 128.065,23.702 128.481,23.693 128.590 C 23.684 128.700,23.755 128.749,23.850 128.700 C 24.083 128.578,25.258 130.282,25.344 130.867 C 25.454 131.618,26.203 132.349,26.676 132.167 C 26.927 132.071,27.136 132.334,27.170 132.790 C 27.203 133.225,27.645 133.965,28.152 134.435 C 28.659 134.905,28.991 135.423,28.891 135.586 C 28.790 135.749,28.948 136.082,29.242 136.326 C 29.535 136.570,29.776 136.633,29.776 136.466 C 29.776 136.300,30.055 136.562,30.397 137.050 C 30.739 137.538,30.941 137.991,30.845 138.056 C 30.750 138.121,31.025 138.363,31.456 138.594 C 31.887 138.825,32.291 139.175,32.353 139.372 C 32.415 139.570,32.587 139.691,32.735 139.641 C 32.883 139.592,32.976 139.673,32.942 139.821 C 32.838 140.267,33.813 142.063,34.159 142.063 C 34.337 142.063,34.382 142.224,34.260 142.422 C 34.057 142.750,34.547 142.940,35.273 142.814 C 35.436 142.786,35.465 142.931,35.338 143.136 C 35.211 143.341,34.917 143.401,34.684 143.269 C 34.226 143.008,36.066 145.174,36.950 145.935 C 37.246 146.190,37.489 146.562,37.489 146.762 C 37.489 146.962,37.892 147.454,38.386 147.854 C 38.879 148.255,39.049 148.459,38.764 148.307 C 38.463 148.148,38.588 148.514,39.060 149.177 C 39.509 149.807,40.020 150.233,40.196 150.124 C 40.373 150.015,40.620 150.335,40.745 150.835 C 40.871 151.335,41.099 151.666,41.253 151.571 C 41.606 151.353,42.510 152.408,42.219 152.699 C 42.100 152.817,42.287 153.177,42.633 153.497 C 43.031 153.866,43.058 153.954,42.707 153.736 C 42.402 153.546,42.621 153.903,43.194 154.530 C 43.767 155.157,44.383 155.578,44.563 155.467 C 44.744 155.355,44.840 155.563,44.777 155.928 C 44.698 156.393,44.852 156.560,45.291 156.487 C 45.637 156.429,45.919 156.550,45.919 156.756 C 45.919 156.962,45.748 157.130,45.539 157.130 C 45.330 157.130,45.261 157.294,45.385 157.495 C 45.509 157.695,45.720 157.793,45.854 157.711 C 45.989 157.629,46.409 157.976,46.788 158.482 C 47.226 159.066,47.291 159.304,46.967 159.135 C 46.687 158.989,46.861 159.222,47.354 159.654 C 47.848 160.086,48.221 160.543,48.185 160.668 C 48.149 160.794,48.316 160.857,48.557 160.809 C 48.798 160.761,49.023 161.083,49.056 161.526 C 49.088 161.969,49.464 162.614,49.889 162.960 C 50.314 163.305,50.523 163.593,50.354 163.599 C 50.184 163.605,50.358 163.847,50.741 164.137 C 51.124 164.427,51.301 164.664,51.134 164.664 C 50.967 164.664,51.119 164.983,51.472 165.373 C 51.825 165.763,52.254 165.995,52.425 165.890 C 52.702 165.718,52.798 165.996,52.703 166.694 C 52.686 166.824,52.931 167.077,53.249 167.254 C 53.567 167.432,53.738 167.721,53.630 167.896 C 53.447 168.192,54.827 169.184,55.262 169.070 C 55.369 169.041,55.482 169.356,55.513 169.768 C 55.544 170.181,55.779 170.652,56.036 170.814 C 56.292 170.977,56.345 171.113,56.153 171.116 C 55.961 171.119,56.163 171.372,56.602 171.680 C 57.040 171.987,57.399 172.462,57.399 172.735 C 57.399 173.009,57.721 173.458,58.114 173.734 C 58.508 174.009,58.723 174.341,58.593 174.472 C 58.462 174.602,58.571 174.709,58.834 174.709 C 59.097 174.709,59.206 174.815,59.076 174.945 C 58.855 175.166,60.119 176.260,60.717 176.365 C 60.865 176.391,61.087 176.433,61.210 176.457 C 61.333 176.482,61.242 176.733,61.007 177.015 C 60.667 177.426,60.731 177.609,61.332 177.930 C 61.745 178.151,61.989 178.483,61.875 178.669 C 61.760 178.854,61.924 178.907,62.238 178.786 C 62.552 178.665,62.763 178.711,62.705 178.887 C 62.543 179.385,64.082 181.173,64.425 180.885 C 64.593 180.743,64.513 180.910,64.249 181.256 C 63.838 181.793,63.852 181.883,64.351 181.883 C 64.671 181.883,64.933 182.054,64.933 182.263 C 64.933 182.472,64.771 182.543,64.574 182.422 C 63.990 182.061,64.165 182.472,64.822 183.005 C 65.235 183.340,65.343 183.354,65.160 183.049 C 65.012 182.803,65.058 182.601,65.263 182.601 C 65.469 182.601,65.740 183.012,65.866 183.514 C 65.992 184.017,66.170 184.353,66.262 184.261 C 66.616 183.907,67.773 185.253,67.449 185.644 C 67.234 185.903,67.548 186.378,68.367 187.032 C 69.052 187.578,69.518 188.177,69.404 188.362 C 69.289 188.548,69.366 188.700,69.575 188.700 C 69.784 188.700,69.915 188.821,69.865 188.969 C 69.816 189.117,69.937 189.300,70.135 189.376 C 70.620 189.562,71.535 190.901,71.632 191.567 C 71.675 191.864,72.123 192.437,72.627 192.839 C 73.130 193.241,73.543 193.762,73.543 193.996 C 73.543 194.231,73.945 194.686,74.436 195.009 C 74.928 195.331,75.224 195.765,75.095 195.975 C 74.948 196.212,75.084 196.269,75.457 196.126 C 75.785 196.000,76.054 196.053,76.054 196.244 C 76.054 196.436,75.883 196.592,75.674 196.592 C 75.465 196.592,75.389 196.746,75.506 196.935 C 75.623 197.124,75.940 197.193,76.212 197.088 C 76.504 196.977,76.804 197.206,76.944 197.647 C 77.075 198.059,77.316 198.313,77.481 198.211 C 77.646 198.109,77.696 198.349,77.593 198.744 C 77.484 199.161,77.582 199.462,77.827 199.462 C 78.059 199.462,78.149 199.623,78.027 199.821 C 77.828 200.143,78.298 200.335,79.013 200.222 C 79.161 200.198,79.249 200.300,79.207 200.448 C 79.070 200.939,80.405 203.349,80.925 203.548 C 81.205 203.656,81.435 203.918,81.435 204.129 C 81.435 204.524,81.790 205.022,83.049 206.393 C 83.444 206.823,83.767 207.305,83.767 207.464 C 83.767 207.624,84.170 208.082,84.664 208.482 C 85.157 208.883,85.327 209.086,85.042 208.935 C 84.745 208.778,84.877 209.157,85.350 209.821 C 85.805 210.460,86.262 210.898,86.365 210.794 C 86.469 210.691,87.019 211.191,87.587 211.905 C 88.154 212.620,88.543 213.280,88.450 213.373 C 88.358 213.466,88.565 213.804,88.911 214.125 C 89.309 214.494,89.336 214.581,88.986 214.363 C 88.680 214.174,88.899 214.531,89.472 215.158 C 90.045 215.785,90.650 216.213,90.817 216.110 C 91.094 215.939,91.270 216.457,91.164 217.130 C 91.140 217.278,91.292 217.399,91.501 217.399 C 91.710 217.399,91.786 217.552,91.670 217.740 C 91.413 218.157,92.718 218.911,93.077 218.552 C 93.218 218.411,93.301 218.457,93.261 218.655 C 93.221 218.852,93.228 219.135,93.276 219.283 C 93.324 219.430,93.383 219.706,93.408 219.895 C 93.433 220.084,93.776 220.499,94.170 220.818 C 94.565 221.137,94.646 221.289,94.350 221.156 C 94.054 221.023,94.338 221.347,94.981 221.876 C 95.624 222.405,96.065 222.976,95.960 223.146 C 95.855 223.315,96.004 223.585,96.290 223.745 C 96.576 223.905,96.857 224.197,96.915 224.395 C 96.972 224.592,97.199 224.712,97.418 224.662 C 97.638 224.611,97.818 224.806,97.818 225.094 C 97.818 225.383,97.643 225.528,97.429 225.418 C 97.215 225.307,97.686 225.851,98.475 226.626 C 99.265 227.402,100.031 227.974,100.179 227.898 C 100.327 227.822,100.448 227.931,100.448 228.140 C 100.448 228.349,100.277 228.520,100.069 228.520 C 99.860 228.520,99.795 228.692,99.925 228.903 C 100.055 229.113,100.248 229.199,100.353 229.094 C 100.648 228.799,101.883 230.528,101.883 231.237 C 101.883 231.585,101.986 231.766,102.111 231.641 C 102.236 231.516,102.799 232.013,103.362 232.747 C 103.925 233.480,104.540 234.265,104.728 234.491 C 104.915 234.717,104.958 235.025,104.821 235.176 C 104.685 235.327,104.865 235.346,105.220 235.218 C 105.606 235.080,105.778 235.129,105.648 235.340 C 105.527 235.535,105.626 235.695,105.868 235.695 C 106.110 235.695,106.198 235.805,106.064 235.939 C 105.929 236.074,106.266 236.664,106.811 237.250 C 107.356 237.837,107.561 238.200,107.265 238.056 C 106.969 237.912,107.033 238.043,107.407 238.348 C 107.781 238.652,108.266 238.794,108.483 238.664 C 108.760 238.499,108.757 238.583,108.475 238.945 C 108.061 239.475,110.219 241.949,110.687 241.481 C 110.799 241.369,110.773 241.582,110.631 241.953 C 110.463 242.390,110.505 242.546,110.750 242.395 C 110.959 242.266,111.231 242.441,111.355 242.784 C 111.875 244.220,112.562 245.093,112.788 244.606 C 112.912 244.342,112.945 244.489,112.863 244.933 C 112.770 245.435,112.890 245.740,113.182 245.740 C 113.441 245.740,113.815 246.209,114.015 246.781 C 114.215 247.354,114.594 247.798,114.857 247.768 C 115.121 247.738,115.336 247.827,115.336 247.967 C 115.336 248.106,115.643 248.445,116.018 248.719 C 116.496 249.068,116.575 249.295,116.282 249.477 C 116.051 249.619,115.966 249.903,116.093 250.108 C 116.241 250.348,116.432 250.307,116.631 249.993 C 116.881 249.600,116.941 249.597,116.945 249.981 C 116.948 250.242,117.194 250.698,117.492 250.996 C 117.790 251.294,117.941 251.687,117.828 251.870 C 117.715 252.053,117.874 252.299,118.181 252.417 C 118.489 252.535,118.656 252.768,118.553 252.934 C 118.450 253.101,118.693 253.413,119.093 253.627 C 119.493 253.841,119.821 254.217,119.821 254.462 C 119.821 255.052,121.867 256.834,122.216 256.547 C 122.365 256.424,122.292 256.580,122.054 256.894 C 121.554 257.553,121.813 257.976,122.546 257.695 C 122.882 257.566,123.049 257.760,123.049 258.279 C 123.049 258.706,123.211 258.956,123.408 258.834 C 123.605 258.712,123.767 258.856,123.767 259.154 C 123.767 259.452,124.049 259.860,124.395 260.061 C 124.877 260.342,124.900 260.429,124.492 260.438 C 124.191 260.444,124.537 260.923,125.293 261.545 C 126.024 262.148,126.607 262.754,126.587 262.890 C 126.479 263.648,126.737 264.016,127.623 264.369 C 128.544 264.735,128.550 264.750,127.713 264.597 L 126.816 264.432 127.571 265.056 C 127.986 265.399,128.523 266.049,128.764 266.500 C 129.009 266.957,129.418 267.238,129.689 267.134 C 130.012 267.010,130.132 267.170,130.048 267.609 C 129.965 268.036,130.738 269.138,132.225 270.715 C 133.492 272.060,134.529 273.296,134.529 273.462 C 134.529 273.628,134.679 273.671,134.863 273.558 C 135.047 273.444,135.314 273.541,135.457 273.772 C 135.613 274.024,135.561 274.096,135.327 273.951 C 135.113 273.819,134.836 273.874,134.712 274.075 C 134.588 274.275,134.720 274.439,135.005 274.439 C 135.290 274.439,135.802 275.026,136.142 275.742 C 136.622 276.755,136.838 276.935,137.111 276.550 C 137.370 276.183,137.415 276.264,137.284 276.861 C 137.166 277.399,137.276 277.668,137.612 277.668 C 137.890 277.668,138.117 277.839,138.117 278.048 C 138.117 278.257,137.915 278.312,137.668 278.170 C 137.422 278.027,137.600 278.329,138.065 278.840 C 138.592 279.419,139.132 279.690,139.500 279.558 C 139.824 279.442,139.970 279.480,139.824 279.641 C 139.677 279.802,139.738 280.151,139.957 280.415 C 140.177 280.680,140.226 280.897,140.065 280.897 C 139.905 280.897,140.087 281.151,140.470 281.462 C 140.853 281.772,140.939 281.909,140.662 281.765 C 140.319 281.587,140.245 281.644,140.429 281.942 C 140.578 282.183,140.924 282.295,141.198 282.190 C 141.472 282.085,141.657 282.195,141.610 282.434 C 141.563 282.674,141.717 282.833,141.951 282.788 C 142.194 282.741,142.321 283.000,142.246 283.390 C 142.173 283.767,142.498 284.490,142.968 284.997 C 143.438 285.504,143.735 285.919,143.628 285.919 C 143.261 285.919,145.381 288.251,146.143 288.687 C 146.624 288.961,146.714 289.127,146.387 289.135 C 146.088 289.143,146.443 289.674,147.224 290.390 C 148.087 291.179,148.483 291.799,148.313 292.094 C 148.166 292.348,148.168 292.447,148.317 292.313 C 148.663 292.002,150.494 294.088,150.836 295.183 C 150.990 295.677,151.292 295.941,151.577 295.831 C 151.894 295.710,152.015 295.872,151.931 296.307 C 151.767 297.158,153.320 298.653,153.964 298.265 C 154.290 298.069,154.270 298.192,153.901 298.653 C 153.411 299.267,153.421 299.305,154.010 299.085 C 154.398 298.939,154.569 298.984,154.437 299.197 C 154.316 299.392,154.429 299.554,154.687 299.557 C 155.029 299.561,155.010 299.658,154.619 299.910 C 154.100 300.246,154.223 300.336,155.302 300.415 C 155.580 300.435,155.848 300.734,155.899 301.080 C 155.954 301.456,155.824 301.624,155.574 301.499 C 155.345 301.384,155.561 301.647,156.054 302.083 C 156.547 302.519,156.910 303.015,156.861 303.186 C 156.776 303.482,156.883 303.527,157.937 303.632 C 158.184 303.657,158.393 303.919,158.402 304.215 C 158.411 304.511,158.640 304.704,158.911 304.643 C 159.320 304.552,159.317 304.640,158.895 305.159 C 158.439 305.719,158.457 305.758,159.064 305.530 C 159.640 305.313,159.674 305.357,159.289 305.821 C 158.882 306.312,159.019 306.512,159.700 306.421 C 159.830 306.403,160.100 306.856,160.299 307.427 C 160.498 307.998,161.001 308.647,161.417 308.869 C 161.832 309.092,162.078 309.427,161.962 309.614 C 161.846 309.802,161.932 309.955,162.152 309.955 C 162.373 309.955,162.465 310.098,162.357 310.273 C 162.249 310.448,162.401 310.791,162.695 311.035 C 162.988 311.278,163.234 311.337,163.240 311.165 C 163.250 310.869,164.082 312.086,164.129 312.466 C 164.218 313.193,165.191 314.289,165.906 314.468 C 166.427 314.599,166.696 314.873,166.586 315.161 C 166.296 315.915,167.545 317.561,168.215 317.306 C 168.672 317.132,168.699 317.179,168.346 317.534 C 167.993 317.889,168.023 318.115,168.491 318.632 C 169.246 319.466,169.933 319.486,169.282 318.655 C 168.836 318.087,168.849 318.073,169.413 318.516 C 169.756 318.785,169.952 319.142,169.848 319.310 C 169.745 319.478,169.989 319.944,170.391 320.346 C 170.810 320.766,170.934 321.076,170.681 321.076 C 170.438 321.076,170.839 321.570,171.571 322.173 C 172.302 322.776,172.885 323.382,172.865 323.518 C 172.759 324.262,172.967 324.706,173.360 324.575 C 173.794 324.430,174.464 325.276,174.924 326.547 C 175.049 326.892,175.303 327.175,175.489 327.175 C 175.675 327.175,175.727 327.337,175.604 327.536 C 175.481 327.735,175.632 327.994,175.939 328.112 C 176.247 328.230,176.409 328.471,176.300 328.647 C 176.190 328.824,176.272 328.989,176.481 329.013 C 176.690 329.038,177.022 329.099,177.220 329.148 C 177.417 329.197,177.679 329.258,177.802 329.283 C 177.925 329.307,177.842 329.548,177.618 329.818 C 177.200 330.322,177.838 331.215,178.527 331.091 C 179.279 330.956,179.424 331.166,178.968 331.728 C 178.633 332.140,178.619 332.249,178.924 332.066 C 179.170 331.917,179.372 331.967,179.372 332.176 C 179.372 332.385,179.614 332.556,179.910 332.556 C 180.206 332.556,180.423 332.677,180.391 332.825 C 180.281 333.349,180.887 334.343,181.199 334.150 C 181.374 334.042,181.420 334.204,181.303 334.511 C 181.185 334.817,181.249 335.067,181.445 335.067 C 181.641 335.067,182.072 335.636,182.401 336.331 C 182.731 337.026,183.164 337.494,183.363 337.371 C 183.562 337.248,183.674 337.395,183.611 337.698 C 183.549 338.001,183.649 338.245,183.833 338.241 C 184.017 338.237,184.431 338.772,184.752 339.431 C 185.074 340.089,185.540 340.583,185.789 340.529 C 186.059 340.471,186.135 340.604,185.977 340.859 C 185.792 341.158,185.908 341.213,186.360 341.039 C 186.907 340.829,186.937 340.875,186.554 341.337 C 186.219 341.741,186.211 341.883,186.524 341.883 C 186.757 341.883,186.849 342.044,186.727 342.241 C 186.606 342.437,186.919 342.786,187.424 343.016 C 188.248 343.391,188.487 343.742,188.396 344.446 C 188.380 344.573,188.801 345.138,189.333 345.701 C 189.864 346.265,190.561 347.211,190.883 347.803 C 191.204 348.395,191.853 349.078,192.325 349.322 C 192.800 349.567,192.948 349.768,192.655 349.770 C 192.340 349.774,192.702 350.340,193.552 351.176 C 194.336 351.946,194.978 352.729,194.978 352.917 C 194.978 353.105,195.499 353.697,196.135 354.233 C 196.772 354.768,197.277 355.317,197.259 355.451 C 197.144 356.267,197.414 356.592,198.206 356.592 C 199.830 356.592,199.978 357.065,190.928 333.453 C 187.374 324.179,178.709 301.498,171.673 283.049 C 164.637 264.601,158.503 248.538,158.041 247.354 C 157.579 246.170,155.633 241.085,153.716 236.054 C 151.799 231.022,148.411 222.143,146.188 216.323 C 143.965 210.502,140.578 201.623,138.662 196.592 C 136.745 191.561,132.305 179.937,128.793 170.762 C 125.282 161.587,119.543 146.574,116.042 137.399 C 112.540 128.224,108.314 117.166,106.650 112.825 C 104.986 108.484,103.136 103.601,102.541 101.973 C 101.945 100.346,101.333 98.938,101.183 98.844 C 101.032 98.751,78.684 98.661,51.522 98.644 C 20.725 98.625,2.214 98.486,2.345 98.275 C 2.460 98.089,2.383 97.937,2.174 97.937 C 1.965 97.937,1.794 98.130,1.794 98.365 C 1.794 98.600,1.557 98.478,1.267 98.095 C 0.752 97.415,0.740 97.417,0.729 98.188 " stroke="none" fill="#23bce4" fill-rule="evenodd"></path><path id="path5" d="M125.022 2.061 C 239.375 2.305,318.839 2.306,318.689 2.063 C 318.598 1.915,265.380 1.833,200.427 1.882 C 135.475 1.930,101.543 2.011,125.022 2.061 M320.000 2.629 C 320.000 2.787,320.484 3.324,321.076 3.822 C 321.668 4.320,322.152 5.068,322.152 5.485 C 322.152 6.080,322.246 6.149,322.589 5.805 C 322.933 5.462,322.702 5.044,321.513 3.855 C 320.681 3.023,320.000 2.472,320.000 2.629 M78.511 4.762 C 77.178 6.261,76.926 6.740,77.256 7.152 C 77.585 7.564,77.554 7.625,77.101 7.456 C 76.341 7.172,73.287 10.650,73.824 11.187 C 74.166 11.530,75.004 10.582,74.853 10.024 C 74.741 9.612,76.613 7.713,77.130 7.713 C 77.486 7.713,77.641 7.410,77.588 6.816 C 77.543 6.323,77.594 6.111,77.700 6.345 C 77.832 6.637,78.121 6.543,78.617 6.046 C 79.016 5.648,79.258 5.237,79.155 5.134 C 79.052 5.031,79.362 4.582,79.843 4.136 C 80.324 3.691,80.717 3.223,80.717 3.098 C 80.717 2.528,80.054 3.029,78.511 4.762 M323.680 7.097 C 323.711 7.507,323.865 7.763,324.023 7.665 C 324.181 7.568,324.421 7.776,324.556 8.128 C 324.691 8.481,325.244 9.201,325.785 9.730 C 326.325 10.258,326.658 10.801,326.523 10.936 C 326.388 11.071,326.520 11.127,326.816 11.061 C 327.116 10.995,327.310 11.154,327.254 11.421 C 327.199 11.685,327.482 11.986,327.882 12.091 C 328.282 12.195,328.615 12.545,328.621 12.867 C 328.636 13.601,329.455 14.709,329.983 14.709 C 330.202 14.709,330.294 14.934,330.188 15.210 C 330.083 15.486,330.168 15.819,330.379 15.949 C 330.590 16.079,330.762 16.005,330.762 15.785 C 330.762 15.564,330.917 15.479,331.105 15.596 C 331.294 15.712,331.401 16.004,331.344 16.245 C 331.286 16.485,331.312 16.542,331.403 16.372 C 331.493 16.202,331.706 16.282,331.876 16.551 C 332.056 16.835,332.189 16.871,332.192 16.638 C 332.195 16.416,331.511 15.591,330.673 14.804 C 329.834 14.017,329.104 13.178,329.050 12.940 C 328.974 12.602,326.210 9.230,323.914 6.673 C 323.754 6.496,323.649 6.686,323.680 7.097 M71.245 13.468 C 70.296 14.568,69.577 15.525,69.647 15.595 C 69.873 15.820,71.237 14.553,71.495 13.879 C 71.632 13.521,71.910 13.331,72.114 13.457 C 72.318 13.583,72.461 13.553,72.433 13.390 C 72.311 12.691,72.497 12.280,72.915 12.327 C 73.432 12.384,73.753 11.729,73.284 11.573 C 73.112 11.516,72.195 12.369,71.245 13.468 M68.187 17.089 C 67.779 17.609,67.444 18.174,67.444 18.344 C 67.444 18.800,69.028 17.140,69.107 16.601 C 69.205 15.933,69.019 16.031,68.187 17.089 M332.843 17.758 C 333.044 18.152,333.614 18.856,334.112 19.321 C 334.609 19.786,334.929 20.391,334.824 20.666 C 334.709 20.966,334.863 21.166,335.208 21.166 C 336.078 21.166,335.904 20.794,334.116 18.834 C 333.215 17.848,332.643 17.363,332.843 17.758 M64.539 21.459 C 61.459 24.851,56.682 30.792,56.682 31.230 C 56.682 31.474,57.085 31.239,57.578 30.707 C 58.072 30.174,58.475 29.645,58.475 29.530 C 58.475 29.416,58.809 29.033,59.216 28.679 C 59.624 28.326,59.966 27.903,59.976 27.740 C 60.015 27.135,60.986 26.004,60.992 26.557 C 60.997 27.017,61.040 27.018,61.327 26.564 C 61.508 26.278,61.590 25.936,61.509 25.805 C 61.277 25.429,62.695 24.300,63.092 24.545 C 63.288 24.666,63.550 24.601,63.674 24.400 C 63.797 24.200,63.648 24.036,63.342 24.036 C 62.896 24.036,62.938 23.860,63.554 23.151 C 63.977 22.665,64.488 22.368,64.689 22.493 C 64.907 22.627,64.966 22.488,64.836 22.148 C 64.715 21.834,64.849 21.384,65.133 21.148 C 65.418 20.912,65.655 20.860,65.661 21.032 C 65.667 21.204,65.843 21.051,66.053 20.691 C 66.810 19.388,66.084 19.757,64.539 21.459 M335.969 22.234 C 335.861 22.409,336.250 22.835,336.835 23.181 C 337.420 23.526,337.822 23.932,337.728 24.084 C 337.635 24.235,337.886 24.534,338.286 24.748 C 339.250 25.264,339.203 24.954,338.098 23.505 C 337.114 22.215,336.286 21.721,335.969 22.234 M340.538 26.761 C 340.883 27.168,341.166 27.682,341.166 27.903 C 341.166 28.125,341.771 28.898,342.511 29.622 C 343.251 30.346,343.825 31.053,343.787 31.194 C 343.748 31.335,343.932 31.450,344.194 31.450 C 344.682 31.450,341.686 27.397,340.543 26.512 C 339.940 26.044,339.939 26.056,340.538 26.761 M54.736 33.069 C 53.297 34.751,53.096 35.373,54.180 34.793 C 54.582 34.578,54.797 34.224,54.660 34.002 C 54.499 33.742,54.618 33.679,54.997 33.825 C 55.319 33.948,55.693 33.870,55.829 33.651 C 55.987 33.395,55.894 33.346,55.571 33.514 C 55.271 33.669,55.298 33.583,55.637 33.300 C 56.097 32.916,56.466 31.570,56.112 31.570 C 56.061 31.570,55.442 32.244,54.736 33.069 M345.471 33.004 C 345.767 33.196,345.876 33.355,345.712 33.358 C 345.549 33.361,345.921 33.789,346.539 34.309 C 347.157 34.829,347.589 35.447,347.498 35.684 C 347.407 35.920,347.560 36.114,347.837 36.114 C 348.114 36.114,348.341 36.047,348.341 35.965 C 348.341 35.569,345.692 32.646,345.338 32.651 C 345.115 32.654,345.175 32.813,345.471 33.004 M51.965 36.535 C 51.068 37.336,50.933 37.616,51.332 37.848 C 51.610 38.010,51.719 38.010,51.573 37.848 C 51.243 37.485,51.986 36.530,52.399 36.785 C 52.564 36.887,52.875 36.643,53.089 36.243 C 53.620 35.250,53.314 35.330,51.965 36.535 M348.678 37.629 C 349.356 38.219,350.043 38.622,350.202 38.523 C 350.362 38.424,350.493 38.651,350.493 39.026 C 350.493 39.790,351.799 41.146,352.173 40.771 C 352.306 40.639,352.172 40.331,351.877 40.086 C 351.582 39.841,351.062 39.192,350.721 38.643 C 350.381 38.094,349.949 37.741,349.760 37.857 C 349.571 37.974,349.417 37.924,349.417 37.747 C 349.417 37.570,348.973 37.229,348.430 36.990 C 347.515 36.586,347.533 36.632,348.678 37.629 M49.217 39.822 C 48.367 40.809,47.771 41.777,47.893 41.974 C 48.186 42.447,48.789 42.433,48.789 41.952 C 48.789 41.743,48.628 41.672,48.430 41.794 C 47.683 42.256,48.113 41.350,49.083 40.421 C 49.639 39.888,50.230 39.575,50.396 39.726 C 50.562 39.877,50.590 39.812,50.459 39.582 C 50.327 39.352,50.406 39.102,50.635 39.026 C 50.863 38.950,50.985 38.694,50.906 38.458 C 50.827 38.221,50.067 38.835,49.217 39.822 M352.298 41.525 C 352.321 42.062,353.363 43.203,353.363 42.691 C 353.363 42.361,353.533 42.427,353.870 42.887 C 354.148 43.268,354.284 43.727,354.173 43.908 C 354.061 44.089,354.139 44.132,354.346 44.004 C 354.801 43.723,355.257 44.750,354.920 45.295 C 354.770 45.537,354.895 45.600,355.251 45.463 C 356.031 45.164,356.716 46.011,356.151 46.576 C 355.825 46.902,355.944 46.982,356.671 46.922 L 357.614 46.843 356.475 45.485 C 355.849 44.737,354.793 43.480,354.129 42.691 C 353.006 41.356,352.271 40.888,352.298 41.525 M45.457 44.235 C 44.725 45.129,44.126 46.120,44.126 46.437 C 44.126 46.754,43.756 47.154,43.304 47.326 C 42.852 47.498,42.280 47.881,42.034 48.177 C 41.485 48.840,41.164 50.323,41.633 50.033 C 41.820 49.918,41.978 49.631,41.983 49.396 C 41.988 49.161,42.543 48.565,43.216 48.072 C 43.889 47.578,44.534 46.812,44.648 46.368 C 44.763 45.924,45.015 45.561,45.209 45.561 C 45.402 45.561,45.561 45.328,45.561 45.043 C 45.561 44.758,45.901 44.286,46.317 43.995 C 46.734 43.703,47.010 43.272,46.932 43.037 C 46.853 42.802,46.190 43.341,45.457 44.235 M357.788 48.280 C 357.788 48.554,358.084 48.873,358.445 48.988 C 358.807 49.102,359.103 49.437,359.103 49.731 C 359.103 50.026,359.275 50.160,359.486 50.030 C 359.697 49.900,359.957 50.132,360.066 50.547 C 360.174 50.961,360.406 51.300,360.580 51.300 C 361.101 51.300,360.953 50.970,359.778 49.508 C 358.550 47.979,357.788 47.509,357.788 48.280 M39.467 51.474 C 38.801 52.162,38.365 52.835,38.500 52.969 C 38.634 53.104,38.747 52.985,38.750 52.706 C 38.754 52.285,38.822 52.290,39.142 52.735 C 39.474 53.196,39.502 53.187,39.338 52.672 C 39.156 52.102,39.578 51.506,40.351 51.241 C 40.641 51.142,41.007 50.224,40.756 50.224 C 40.714 50.224,40.134 50.787,39.467 51.474 M361.597 53.069 C 361.884 53.254,362.247 53.326,362.404 53.229 C 362.562 53.131,362.691 53.223,362.691 53.432 C 362.691 53.641,362.884 53.812,363.121 53.812 C 363.867 53.812,362.797 52.974,361.888 52.847 C 361.272 52.761,361.202 52.815,361.597 53.069 M36.323 55.224 C 34.588 57.238,34.534 57.374,35.497 57.302 C 35.984 57.265,36.092 57.123,35.852 56.834 C 35.623 56.558,35.678 56.276,36.015 55.997 C 36.406 55.671,36.569 55.681,36.726 56.039 C 36.838 56.294,36.894 56.196,36.851 55.822 C 36.807 55.448,36.996 55.064,37.270 54.968 C 37.603 54.852,37.674 54.947,37.483 55.256 C 37.298 55.555,37.341 55.628,37.607 55.464 C 37.888 55.290,38.118 53.449,37.859 53.453 C 37.853 53.453,37.161 54.250,36.323 55.224 M362.921 54.713 C 363.085 55.139,363.224 55.185,363.415 54.877 C 363.609 54.562,363.732 54.557,363.876 54.856 C 363.999 55.113,364.037 55.095,363.979 54.807 C 363.928 54.556,363.618 54.298,363.290 54.234 C 362.863 54.151,362.758 54.287,362.921 54.713 M365.411 56.682 C 365.789 57.175,366.300 57.708,366.547 57.865 C 366.794 58.023,366.996 58.367,366.996 58.629 C 366.996 58.891,367.236 59.304,367.530 59.548 C 367.823 59.792,367.977 60.133,367.870 60.306 C 367.763 60.478,367.953 60.513,368.291 60.383 C 368.696 60.228,368.822 60.285,368.659 60.549 C 368.522 60.770,368.735 61.124,369.134 61.338 C 369.533 61.551,369.841 61.842,369.819 61.984 C 369.680 62.911,369.882 63.309,370.224 62.780 C 370.514 62.332,370.578 62.363,370.606 62.960 C 370.624 63.354,370.720 63.479,370.818 63.237 C 370.916 62.995,370.459 62.122,369.803 61.297 C 368.473 59.625,364.326 55.267,365.411 56.682 M32.900 59.251 C 31.673 60.660,31.492 61.345,32.347 61.345 C 32.553 61.345,32.631 61.107,32.520 60.817 C 32.408 60.526,32.527 60.163,32.784 60.009 C 33.269 59.720,34.644 57.758,34.361 57.758 C 34.273 57.758,33.616 58.430,32.900 59.251 M29.383 63.408 C 27.721 65.260,25.310 68.342,25.873 67.895 C 26.181 67.651,26.553 67.570,26.700 67.716 C 26.846 67.862,26.933 67.821,26.893 67.623 C 26.738 66.855,26.933 66.573,27.265 67.085 C 27.595 67.596,27.825 66.927,27.666 65.919 C 27.642 65.771,27.873 65.650,28.179 65.650 C 28.484 65.650,28.962 65.126,29.241 64.484 C 29.520 63.843,29.754 63.530,29.762 63.788 C 29.769 64.046,29.954 64.147,30.173 64.012 C 30.456 63.837,30.443 63.689,30.130 63.495 C 29.808 63.296,29.871 63.118,30.361 62.833 C 30.730 62.619,30.860 62.438,30.650 62.432 C 30.440 62.426,29.870 62.865,29.383 63.408 M371.432 63.913 C 371.476 64.240,371.989 64.971,372.572 65.538 C 373.155 66.105,373.825 66.887,374.060 67.275 C 374.369 67.788,374.491 67.834,374.501 67.444 C 374.508 67.148,373.803 66.099,372.933 65.112 C 372.063 64.126,371.388 63.586,371.432 63.913 M374.888 68.693 C 374.888 68.985,375.291 69.325,375.785 69.449 C 376.334 69.587,376.682 69.929,376.682 70.332 C 376.682 70.986,378.088 72.255,378.432 71.912 C 378.531 71.813,378.258 71.485,377.826 71.182 C 377.394 70.880,377.040 70.427,377.040 70.177 C 377.040 69.710,375.575 68.161,375.134 68.161 C 374.999 68.161,374.888 68.401,374.888 68.693 M23.207 70.828 C 22.282 71.900,21.536 72.990,21.550 73.250 C 21.564 73.509,21.714 73.399,21.883 73.004 C 22.053 72.610,22.203 72.489,22.217 72.735 C 22.258 73.473,22.803 73.242,22.861 72.461 C 22.917 71.722,23.936 70.210,24.566 69.931 C 24.860 69.801,25.214 68.879,24.969 68.879 C 24.926 68.879,24.133 69.756,23.207 70.828 M378.117 72.915 C 378.117 73.096,378.318 73.171,378.565 73.081 C 378.812 72.992,379.336 73.180,379.731 73.500 C 380.432 74.067,380.434 74.063,379.819 73.333 C 379.181 72.575,378.117 72.314,378.117 72.915 M19.682 75.063 C 19.230 75.707,18.733 76.287,18.578 76.353 C 18.423 76.419,18.296 76.731,18.296 77.048 C 18.296 77.806,19.528 76.540,19.885 75.417 C 20.035 74.944,20.324 74.731,20.646 74.855 C 21.213 75.072,21.372 74.430,20.835 74.098 C 20.652 73.985,20.134 74.419,19.682 75.063 M380.220 74.581 C 380.489 74.751,380.570 74.965,380.399 75.055 C 380.229 75.145,380.291 75.170,380.538 75.109 C 380.951 75.009,381.147 75.441,381.020 76.170 C 380.992 76.333,381.113 76.377,381.288 76.268 C 381.649 76.045,383.058 77.456,382.780 77.761 C 382.682 77.870,382.880 77.999,383.221 78.050 C 383.638 78.111,383.292 77.505,382.166 76.200 C 381.245 75.133,380.320 74.263,380.111 74.266 C 379.902 74.269,379.951 74.410,380.220 74.581 M16.436 78.949 C 15.782 79.730,14.601 81.122,13.812 82.043 C 13.022 82.965,12.619 83.572,12.915 83.393 C 13.211 83.214,13.776 83.093,14.170 83.125 C 14.772 83.173,14.784 83.152,14.241 82.996 C 13.718 82.846,13.677 82.710,14.030 82.285 C 14.383 81.860,14.530 81.849,14.800 82.225 C 15.048 82.569,15.085 82.535,14.944 82.092 C 14.838 81.758,14.981 81.407,15.269 81.297 C 15.553 81.188,15.785 80.852,15.785 80.549 C 15.785 79.928,17.098 78.477,17.318 78.857 C 17.397 78.992,17.416 78.911,17.360 78.677 C 17.305 78.443,17.614 78.199,18.047 78.136 C 18.707 78.039,18.737 77.981,18.230 77.775 C 17.797 77.599,17.288 77.932,16.436 78.949 M383.498 78.911 C 383.498 79.089,383.842 79.343,384.263 79.477 C 384.877 79.672,384.930 79.789,384.532 80.073 C 384.136 80.355,384.153 80.389,384.618 80.242 C 384.998 80.122,385.373 80.391,385.695 81.015 C 386.337 82.261,387.085 83.064,387.085 82.508 C 387.085 82.280,386.512 81.395,385.812 80.541 C 384.566 79.020,383.498 78.268,383.498 78.911 M387.831 83.836 C 387.815 84.072,388.159 84.514,388.596 84.820 C 389.032 85.125,389.591 85.740,389.838 86.185 C 390.086 86.631,390.294 86.834,390.300 86.637 C 390.320 85.988,388.875 83.906,388.545 84.110 C 388.368 84.220,388.141 84.107,388.041 83.859 C 387.910 83.535,387.851 83.528,387.831 83.836 M10.248 86.306 C 8.720 88.075,8.643 88.249,9.396 88.223 C 9.852 88.207,10.021 88.113,9.774 88.013 C 9.526 87.913,9.410 87.690,9.516 87.519 C 9.622 87.347,9.930 87.291,10.200 87.395 C 10.509 87.513,10.671 87.351,10.637 86.957 C 10.607 86.612,11.107 85.972,11.746 85.534 C 12.543 84.990,12.755 84.679,12.418 84.550 C 12.126 84.438,11.247 85.148,10.248 86.306 M390.709 87.669 C 390.313 88.147,390.444 88.248,392.108 88.746 C 392.206 88.776,392.529 88.944,392.825 89.119 C 393.121 89.295,392.889 88.929,392.310 88.307 C 391.081 86.987,391.227 87.045,390.709 87.669 M6.152 91.211 C 5.379 92.247,4.244 93.568,3.629 94.148 C 3.014 94.727,2.511 95.363,2.511 95.560 C 2.511 95.757,2.173 96.278,1.759 96.718 C 1.167 97.349,1.089 97.659,1.390 98.176 C 1.600 98.538,1.777 98.632,1.783 98.386 C 1.789 98.139,1.965 97.937,2.174 97.937 C 2.383 97.937,2.460 98.089,2.345 98.275 C 2.214 98.486,20.725 98.625,51.522 98.644 C 78.684 98.661,101.047 98.760,101.216 98.865 C 101.386 98.970,101.525 98.891,101.525 98.689 C 101.525 97.627,99.344 97.578,51.695 97.578 C 3.621 97.578,3.251 97.573,2.870 96.861 C 2.558 96.278,2.597 96.143,3.081 96.143 C 3.569 96.143,3.595 96.047,3.229 95.605 C 2.796 95.084,3.074 94.879,4.023 95.020 C 4.164 95.041,4.177 94.792,4.052 94.466 C 3.887 94.037,3.955 93.954,4.299 94.167 C 4.637 94.376,4.690 94.323,4.481 93.985 C 4.266 93.638,4.352 93.574,4.803 93.747 C 5.141 93.877,5.335 93.847,5.232 93.682 C 4.997 93.301,6.533 91.201,7.814 90.152 C 8.574 89.529,8.653 89.350,8.173 89.340 C 7.834 89.333,6.924 90.175,6.152 91.211 M393.543 90.286 C 393.543 90.474,394.021 91.087,394.606 91.647 C 395.191 92.207,395.584 92.804,395.480 92.972 C 395.376 93.141,395.543 93.375,395.852 93.494 C 396.160 93.612,396.413 93.980,396.413 94.311 C 396.413 94.642,396.900 95.200,397.495 95.552 C 398.098 95.908,398.471 96.364,398.337 96.582 C 398.188 96.822,398.263 96.868,398.531 96.703 C 399.040 96.388,398.268 94.937,397.695 95.133 C 397.512 95.196,397.189 94.830,396.977 94.322 C 396.544 93.281,393.543 89.755,393.543 90.286 M2.117 97.600 C 1.434 98.022,1.273 97.723,1.847 97.099 C 2.128 96.795,2.388 96.727,2.465 96.938 C 2.539 97.139,2.382 97.437,2.117 97.600 M348.807 97.573 C 310.044 97.720,299.852 97.852,299.492 98.212 C 299.016 98.688,396.331 98.890,398.140 98.417 C 399.004 98.191,399.033 97.403,398.177 97.394 C 397.897 97.391,375.681 97.471,348.807 97.573 M5.322 104.673 C 5.979 105.506,6.575 106.188,6.646 106.188 C 7.021 106.188,5.689 104.247,4.968 103.745 C 4.294 103.276,4.365 103.461,5.322 104.673 M394.911 104.832 C 394.381 105.381,394.070 105.830,394.220 105.830 C 394.561 105.830,396.232 104.077,396.025 103.936 C 395.942 103.880,395.441 104.283,394.911 104.832 M381.572 122.518 C 381.450 122.835,381.215 123.011,381.049 122.908 C 380.883 122.806,380.747 122.966,380.747 123.264 C 380.747 123.687,380.907 123.647,381.475 123.079 C 381.875 122.679,382.110 122.260,381.997 122.147 C 381.885 122.034,381.693 122.201,381.572 122.518 M21.883 126.457 C 22.763 127.394,23.341 127.708,22.648 126.873 C 22.428 126.608,22.368 126.259,22.514 126.098 C 22.661 125.936,22.578 125.920,22.332 126.062 C 22.085 126.204,21.883 126.149,21.883 125.940 C 21.883 125.732,21.694 125.561,21.462 125.561 C 21.230 125.561,21.420 125.964,21.883 126.457 M31.528 139.115 C 31.712 139.458,32.237 140.060,32.696 140.452 C 33.155 140.845,33.333 140.909,33.091 140.595 C 32.850 140.281,32.772 139.904,32.918 139.758 C 33.064 139.611,32.942 139.546,32.646 139.611 C 32.350 139.677,32.143 139.544,32.186 139.317 C 32.229 139.089,32.024 138.810,31.729 138.697 C 31.315 138.538,31.269 138.632,31.528 139.115 M358.157 153.361 C 358.044 153.656,357.767 153.792,357.541 153.662 C 357.315 153.533,357.253 153.563,357.402 153.728 C 357.552 153.893,357.310 154.443,356.864 154.951 L 356.054 155.874 357.073 154.978 C 358.082 154.090,358.959 152.825,358.566 152.825 C 358.455 152.825,358.271 153.066,358.157 153.361 M44.496 155.605 C 44.516 156.093,45.549 157.262,45.766 157.044 C 45.883 156.927,45.643 156.495,45.232 156.084 C 44.821 155.673,44.489 155.457,44.496 155.605 M348.730 165.518 L 347.864 166.637 348.891 165.661 C 349.455 165.124,349.845 164.621,349.757 164.542 C 349.669 164.464,349.207 164.903,348.730 165.518 M343.251 172.246 C 343.180 172.712,342.912 173.050,342.655 172.996 C 342.389 172.939,342.296 173.070,342.438 173.301 C 342.607 173.574,342.930 173.462,343.438 172.955 C 343.994 172.399,344.083 172.101,343.783 171.801 C 343.484 171.502,343.346 171.616,343.251 172.246 M59.193 175.483 C 59.193 175.575,59.666 176.104,60.244 176.657 C 60.994 177.377,61.270 177.495,61.208 177.073 C 61.160 176.748,61.027 176.527,60.912 176.582 C 60.797 176.637,60.363 176.374,59.948 175.998 C 59.533 175.622,59.193 175.390,59.193 175.483 M61.998 178.923 C 62.410 179.501,63.037 180.197,63.391 180.469 C 63.769 180.760,63.701 180.587,63.225 180.052 C 62.780 179.550,62.490 179.065,62.581 178.973 C 62.673 178.882,62.411 178.596,61.999 178.339 L 61.250 177.871 61.998 178.923 M64.933 182.780 C 65.734 183.633,66.009 183.831,66.009 183.553 C 66.009 183.276,64.649 181.883,64.380 181.883 C 64.220 181.883,64.469 182.287,64.933 182.780 M66.379 184.308 C 66.402 184.839,67.380 185.864,67.571 185.556 C 67.678 185.382,67.451 184.971,67.067 184.641 C 66.682 184.312,66.373 184.162,66.379 184.308 M325.022 196.553 C 325.022 196.804,324.829 196.882,324.574 196.735 C 324.327 196.593,324.247 196.611,324.395 196.774 C 324.544 196.938,324.389 197.408,324.051 197.818 C 323.713 198.229,323.906 198.126,324.479 197.589 C 325.053 197.053,325.410 196.501,325.272 196.364 C 325.135 196.226,325.022 196.311,325.022 196.553 M76.054 197.254 C 76.054 197.900,77.406 198.810,77.688 198.354 C 77.854 198.085,77.809 198.008,77.570 198.156 C 77.356 198.288,77.078 198.071,76.952 197.673 C 76.728 196.967,76.054 196.652,76.054 197.254 M86.457 210.819 C 86.457 211.015,86.901 211.567,87.444 212.045 L 88.430 212.915 87.534 211.839 C 87.040 211.247,86.596 210.695,86.547 210.613 C 86.498 210.531,86.457 210.624,86.457 210.819 M305.855 221.895 C 305.525 222.399,305.082 222.693,304.862 222.557 C 304.615 222.404,304.565 222.475,304.730 222.742 C 305.041 223.246,305.814 222.738,306.400 221.644 C 306.920 220.672,306.542 220.846,305.855 221.895 M302.531 225.783 C 302.570 225.988,302.413 226.163,302.182 226.172 C 301.582 226.195,301.240 226.619,301.628 226.859 C 301.810 226.971,302.308 226.691,302.734 226.237 C 303.308 225.627,303.373 225.411,302.986 225.411 C 302.697 225.411,302.493 225.579,302.531 225.783 M99.365 227.713 C 99.779 228.567,100.448 228.807,100.448 228.102 C 100.448 227.871,100.343 227.788,100.215 227.917 C 100.086 228.045,99.755 227.870,99.478 227.528 C 99.026 226.970,99.014 226.989,99.365 227.713 M102.242 231.627 C 102.242 231.822,102.686 232.374,103.229 232.852 L 104.215 233.722 103.318 232.646 C 102.825 232.054,102.381 231.502,102.332 231.420 C 102.283 231.338,102.242 231.431,102.242 231.627 M105.298 235.326 C 105.180 235.517,105.614 236.211,106.263 236.867 C 106.913 237.523,107.078 237.638,106.632 237.122 C 106.185 236.606,105.929 236.074,106.064 235.939 C 106.198 235.805,106.110 235.695,105.868 235.695 C 105.626 235.695,105.528 235.534,105.650 235.336 C 105.772 235.139,105.791 234.978,105.693 234.978 C 105.594 234.978,105.416 235.134,105.298 235.326 M294.456 236.143 C 294.388 236.587,294.123 236.906,293.866 236.852 C 293.608 236.798,293.508 236.928,293.641 237.145 C 293.984 237.699,295.252 236.486,295.005 235.841 C 294.734 235.135,294.598 235.210,294.456 236.143 M110.749 242.387 C 110.621 242.595,110.953 243.152,111.488 243.625 C 112.165 244.222,112.285 244.266,111.883 243.767 C 111.565 243.372,111.232 242.815,111.144 242.529 C 111.043 242.201,110.897 242.148,110.749 242.387 M288.910 243.469 C 289.042 243.601,288.867 244.045,288.521 244.455 C 287.893 245.201,287.893 245.201,288.700 244.518 C 289.581 243.772,289.745 243.229,289.088 243.229 C 288.858 243.229,288.778 243.337,288.910 243.469 M285.810 247.724 C 285.256 248.211,284.945 248.610,285.119 248.610 C 285.293 248.610,285.815 248.206,286.278 247.713 C 287.350 246.572,287.113 246.577,285.810 247.724 M114.798 247.842 C 114.798 248.045,115.120 248.436,115.513 248.711 C 115.907 248.987,116.109 249.345,115.962 249.507 C 115.815 249.669,115.921 249.670,116.198 249.509 C 116.609 249.271,116.576 249.127,116.018 248.719 C 115.643 248.445,115.389 248.110,115.453 247.976 C 115.517 247.841,115.396 247.673,115.184 247.602 C 114.972 247.532,114.798 247.640,114.798 247.842 M116.634 250.079 C 116.611 250.394,116.922 250.950,117.325 251.314 C 117.967 251.896,118.029 251.903,117.825 251.370 C 117.696 251.036,117.459 250.762,117.297 250.762 C 117.136 250.762,116.929 250.480,116.839 250.135 C 116.706 249.624,116.667 249.614,116.634 250.079 M278.639 257.263 C 277.373 258.706,277.004 259.329,277.795 258.687 C 278.418 258.181,279.981 256.143,279.746 256.143 C 279.677 256.143,279.180 256.647,278.639 257.263 M132.694 271.512 C 133.093 272.072,133.703 272.758,134.050 273.036 C 134.396 273.315,134.135 272.857,133.468 272.018 C 132.100 270.296,131.592 269.964,132.694 271.512 M262.960 277.771 C 262.350 278.267,262.028 279.278,262.590 278.930 C 262.932 278.719,263.825 277.296,263.600 277.321 C 263.544 277.327,263.256 277.529,262.960 277.771 M141.196 282.284 C 141.090 282.455,141.296 282.859,141.653 283.182 C 142.188 283.667,142.302 283.679,142.302 283.250 C 142.302 282.964,142.127 282.762,141.913 282.800 C 141.700 282.839,141.565 282.668,141.614 282.422 C 141.718 281.906,141.478 281.827,141.196 282.284 M148.443 292.197 C 148.647 292.592,149.272 293.318,149.833 293.810 L 150.852 294.706 149.779 293.452 C 148.078 291.464,148.054 291.442,148.443 292.197 M155.197 300.563 C 155.081 300.751,155.213 301.094,155.491 301.325 C 155.890 301.656,155.979 301.628,155.916 301.196 C 155.807 300.456,155.455 300.146,155.197 300.563 M157.862 304.410 C 158.306 304.883,158.807 305.184,158.976 305.080 C 159.424 304.803,159.350 304.560,158.850 304.664 C 158.613 304.713,158.411 304.527,158.402 304.249 C 158.393 303.972,158.086 303.702,157.720 303.648 C 157.124 303.560,157.139 303.640,157.862 304.410 M241.674 304.993 C 241.477 305.747,241.813 305.847,242.439 305.220 C 243.012 304.647,242.983 304.335,242.358 304.335 C 242.076 304.335,241.769 304.631,241.674 304.993 M239.967 308.022 C 239.703 308.340,239.205 308.705,238.861 308.832 C 238.517 308.959,238.350 309.234,238.490 309.444 C 238.646 309.676,239.141 309.362,239.766 308.634 C 240.328 307.979,240.711 307.444,240.617 307.444 C 240.523 307.444,240.231 307.704,239.967 308.022 M234.233 314.768 C 233.701 315.347,234.078 316.005,234.646 315.491 C 235.026 315.147,235.336 314.838,235.336 314.802 C 235.336 314.740,234.288 314.708,234.233 314.768 M232.466 317.809 C 232.466 318.059,232.273 318.137,232.018 317.991 C 231.771 317.849,231.689 317.865,231.835 318.026 C 232.199 318.428,231.400 319.331,230.935 319.044 C 230.707 318.903,230.671 318.989,230.841 319.264 C 231.047 319.598,231.360 319.476,232.043 318.793 C 232.551 318.285,232.854 317.757,232.716 317.619 C 232.579 317.482,232.466 317.567,232.466 317.809 M173.530 324.540 C 173.401 324.748,173.733 325.305,174.269 325.777 C 174.945 326.375,175.065 326.418,174.663 325.919 C 174.345 325.525,174.012 324.968,173.924 324.681 C 173.823 324.353,173.677 324.301,173.530 324.540 M177.065 329.713 C 177.828 330.556,177.897 330.565,177.786 329.806 C 177.738 329.477,177.415 329.166,177.069 329.115 C 176.471 329.028,176.471 329.057,177.065 329.713 M178.520 331.048 C 178.407 331.231,178.893 332.009,179.601 332.776 C 180.308 333.543,180.709 333.913,180.492 333.599 C 180.274 333.285,180.202 332.922,180.332 332.792 C 180.462 332.662,180.299 332.556,179.970 332.556 C 179.641 332.556,179.352 332.395,179.327 332.197 C 179.303 332.000,179.262 331.691,179.238 331.510 C 179.163 330.965,178.740 330.692,178.520 331.048 M218.485 335.593 C 218.245 335.883,218.126 336.327,218.220 336.580 C 218.334 336.885,218.488 336.798,218.676 336.323 C 218.833 335.928,219.134 335.487,219.346 335.342 C 219.615 335.158,219.609 335.077,219.326 335.073 C 219.104 335.070,218.725 335.304,218.485 335.593 M210.427 346.816 C 209.652 347.807,209.590 347.974,210.191 347.448 C 210.911 346.820,211.859 345.471,211.582 345.471 C 211.526 345.471,211.006 346.076,210.427 346.816 M205.227 353.340 C 204.945 353.519,204.672 353.951,204.621 354.300 C 204.570 354.649,204.426 355.348,204.301 355.853 C 204.152 356.458,204.196 356.649,204.428 356.413 C 204.622 356.215,204.836 355.570,204.902 354.978 C 204.968 354.386,205.265 353.705,205.561 353.464 C 206.191 352.953,205.970 352.870,205.227 353.340 M198.206 357.309 C 198.927 358.106,199.422 358.306,198.791 357.545 C 198.572 357.281,198.498 356.958,198.628 356.828 C 198.758 356.698,198.570 356.592,198.210 356.592 C 197.580 356.592,197.580 356.617,198.206 357.309 M199.462 358.231 C 199.462 358.870,202.161 358.952,202.549 358.325 C 202.721 358.045,202.615 357.979,202.232 358.126 C 201.915 358.248,201.162 358.206,200.559 358.033 C 199.700 357.787,199.462 357.830,199.462 358.231 " stroke="none" fill="#34d4f4" fill-rule="evenodd"></path><path id="path6" d="M101.525 98.981 C 101.525 99.250,104.654 107.544,107.965 116.054 C 109.161 119.126,114.039 131.895,116.600 138.655 C 117.945 142.206,119.793 147.049,120.706 149.417 C 121.620 151.785,123.960 157.926,125.906 163.064 C 127.853 168.202,130.014 173.852,130.708 175.620 C 132.118 179.210,138.218 195.183,140.292 200.717 C 141.032 202.691,142.876 207.534,144.390 211.480 C 145.904 215.426,148.247 221.561,149.597 225.112 C 150.947 228.664,153.201 234.556,154.605 238.206 C 156.009 241.857,158.782 249.121,160.768 254.350 C 162.754 259.578,164.753 264.825,165.210 266.009 C 165.667 267.193,166.688 269.857,167.479 271.928 C 168.269 274.000,169.965 278.439,171.248 281.794 C 172.531 285.148,175.026 291.686,176.793 296.323 C 183.781 314.663,187.036 323.183,188.168 326.099 C 195.125 344.018,199.142 355.086,199.012 355.974 C 198.905 356.706,198.995 356.931,199.342 356.798 C 199.636 356.685,199.821 356.874,199.821 357.289 C 199.821 358.486,201.062 357.924,201.187 356.670 C 201.270 355.837,201.564 355.440,202.353 355.090 C 202.933 354.833,203.408 354.513,203.408 354.378 C 203.408 354.244,203.691 354.059,204.036 353.969 C 204.381 353.879,204.122 353.786,203.459 353.764 C 202.467 353.729,202.298 353.611,202.496 353.094 C 202.629 352.749,205.164 346.090,208.129 338.296 C 211.094 330.502,214.698 321.058,216.138 317.309 C 217.578 313.561,219.649 308.152,220.740 305.291 C 221.831 302.430,224.420 295.650,226.492 290.224 C 228.564 284.798,234.078 270.350,238.746 258.117 C 243.413 245.883,248.897 231.516,250.933 226.188 C 252.969 220.861,257.649 208.592,261.333 198.924 C 265.018 189.256,268.408 180.377,268.866 179.193 C 269.325 178.009,271.426 172.520,273.534 166.996 C 275.643 161.471,277.745 155.982,278.206 154.798 C 280.474 148.972,297.279 104.865,298.332 101.973 C 299.297 99.323,299.598 96.895,298.666 99.283 C 298.531 99.628,296.088 106.045,293.237 113.543 C 290.385 121.040,287.821 127.740,287.537 128.430 C 287.253 129.121,285.551 133.561,283.755 138.296 C 281.959 143.031,280.111 147.874,279.650 149.058 C 279.188 150.242,275.551 159.767,271.567 170.224 C 267.584 180.682,262.259 194.646,259.734 201.256 C 257.210 207.865,253.204 218.359,250.832 224.574 C 248.460 230.789,245.684 238.054,244.664 240.717 C 243.644 243.381,239.449 254.359,235.343 265.112 C 231.237 275.865,225.379 291.202,222.326 299.193 C 219.273 307.184,214.870 318.726,212.541 324.843 C 200.206 357.239,200.404 356.782,199.685 354.529 C 199.339 353.443,193.287 337.432,192.465 335.426 C 192.182 334.735,186.848 320.771,180.612 304.395 C 174.376 288.018,168.897 273.650,168.437 272.466 C 167.977 271.283,165.877 265.794,163.771 260.269 C 161.664 254.744,158.918 247.561,157.669 244.305 C 156.421 241.049,153.028 232.170,150.130 224.574 C 147.233 216.978,143.569 207.372,141.988 203.229 C 140.407 199.085,138.316 193.596,137.342 191.031 C 136.367 188.466,135.103 185.157,134.532 183.677 C 133.961 182.197,132.448 178.242,131.168 174.888 C 129.889 171.534,127.148 164.350,125.076 158.924 C 123.005 153.498,119.461 144.215,117.201 138.296 C 101.437 97.001,101.525 97.222,101.525 98.981 " stroke="none" fill="#54ccec" fill-rule="evenodd"></path></g></svg>